<?xml version='1.0' encoding='utf-8'?>
<svg xmlns="http://www.w3.org/2000/svg" enable-background="new 108.028 865 2726.971 1137.798" version="1.1" viewBox="108.028 865 2726.971 1137.798">
<path d="m2749.9 1246.5c1.06-14.081-1.317-28.59-6.46-41.907-5.369-13.902-11.849-26.151-22.854-36.437-10.894-10.181-23.622-18.178-36.268-25.969-0.203-0.125-0.406-0.25-0.609-0.376-31.443-19.386-67.295-30.384-102.68-39.982-37.345-10.13-75.681-16.427-114.19-19.945-24.833-2.268-49.768-3.371-74.702-3.484-18.458-0.083-36.865 1.15-55.311 1.15-38.257 1.733-75.878 6.676-113.85 11.232-6.063 0.859-12.243 1.623-18.22 2.364-9.493 1.174-19.309 2.389-28.888 4.008-76.838 12.991-153.37 32.185-227.85 55.929-2.437 0.777-5.227 1.264-7.521 2.412-2.1 0.717-4.25 1.402-6.328 2.064-3.533 1.126-7.187 2.29-10.701 3.649l-0.266 0.05c-0.465 0.088-1.129 0.212-1.55 0.272 0 0-0.172 0.043-0.185 0.046-22.147 5.568-43.474 14.161-65.219 21.062-14.21 4.51-28.421 9.02-42.631 13.529-13.335 4.232-27.292 7.615-39.535 14.579-1.82 0.478-3.538 1.296-5.2 2.086-0.692 0.33-1.407 0.67-2.139 0.989-1.771 0.812-3.633 1.516-5.432 2.198-3.121 1.183-6.348 2.405-9.214 4.223-0.182 5e-3 -0.444 7e-3 -0.707 0.01-0.272 2e-3 -0.542 5e-3 -0.72 0.01l-0.053 2e-3 0.023 0.225c-1.195 0.498-2.404 1.008-3.574 1.502-1.936 0.818-3.937 1.664-5.913 2.468l-0.028 0.01-0.021 0.207c-3.286 1.096-6.533 2.319-9.347 3.39-0.027 0.011-0.055 0.021-0.091 0.035-1.577 0.625-3.195 1.211-4.762 1.777-2.312 0.835-4.704 1.697-6.994 2.704-3.607 1.051-7.468 2.47-12.15 4.464l-0.857-0.469s-1.044 0.511-1.067 0.522l-0.114 0.916c-0.995 0.038-1.919 0.339-2.743 0.893l-1.223 0.041c-2.392-0.734-5.064-1.092-8.169-1.092-1.179 0-2.441 0.051-3.86 0.154-1.876-0.131-3.743-0.148-5.16-0.148-0.745 0-1.491 5e-3 -2.235 0.01-0.745 5e-3 -1.488 0.01-2.231 0.01-1.497 0-2.705-0.022-3.802-0.071-7.621-0.512-15.08-0.974-22.53-0.974-2.343 0-4.628 0.047-6.79 0.14-4.841 0.07-9.758 0.31-14.513 0.542-2.302 0.112-4.682 0.228-7.026 0.324-4.763 0.573-9.548 1.491-14.174 2.379-1.946 0.373-3.957 0.759-5.938 1.114-3.799 0.125-7.311 1.608-10.709 3.042-1.435 0.606-2.918 1.232-4.399 1.745l-0.04 5e-3 0.02 0.781c-0.148-0.04-0.299-0.069-0.452-0.069-1.37 0-2.558 1.581-2.896 2.733-3.385 2.433-5.873 5.801-7.197 9.744-1.344 1.424-2.83 2.889-4.597 3.978l-0.136 0.385c-2.558 1.48-5.489 3.248-7.954 5.53-1.729 2.168-2.999 4.68-4.226 7.108-0.144 0.285-0.288 0.568-0.433 0.852 0 0-0.294 0.107-0.315 0.114l-0.505 1.286c-6.776 7.669-15.852 17.63-25.979 26.686-0.242 0.216-1.044 0.929-1.475 1.302l-0.038 0.033c-0.01 8e-3 -0.025 0.022-0.037 0.032-0.54 0.47-1.594 1.362-2.197 1.866-0.998-1.896-1.531-3.993-2.043-6.023-0.351-1.388-0.714-2.824-1.223-4.185-0.453-2.348-1.21-4.657-1.943-6.891l-0.231-0.705c0.599-1.636 1.775-2.974 2.913-4.266 0.397-0.451 0.806-0.916 1.182-1.385l0.055 0.04-0.011-0.092 0.019-0.023-0.024-0.018-0.088-0.725c1.632-1.26 2.895-2.914 4.024-4.531l-0.011-0.237c2.633-3.081 4.993-6.308 7.016-9.592 0 0 0.218 0.011 0.233-0.013 1.007-1.564 2.054-3.137 3.066-4.657 1.653-2.48 3.362-5.045 4.947-7.662 0.573-0.89 1.127-1.816 1.695-2.832 4.5-6.13 7.508-13.267 10.416-20.17 0.297-0.705 0.594-1.41 0.894-2.116l0.165-0.415c2.485-5.106 5.127-11.084 5.022-17.442 0.285-1.348 0.47-2.738 0.648-4.083 0.302-2.284 0.616-4.646 1.434-6.862 2.186-3.492 5.434-6.088 8.575-8.599 0.73-0.583 1.485-1.186 2.214-1.79 1.635-0.891 3.229-1.919 4.727-2.897 0 0 0.078-0.053 0.099-0.067 1.773-1.208 3.472-2.444 5.051-3.675l0.099 0.034 0.022-0.025c2.329-2.734 5.544-4.203 8.654-5.623 1.365-0.623 2.775-1.267 4.1-2.013 0.829-0.578 1.657-1.184 2.458-1.771 1.506-1.102 3.063-2.242 4.682-3.241 3.464-1.23 6.808-2.881 10.042-4.477 1.837-0.907 3.735-1.845 5.632-2.693 5.284-1.132 10.782-3.506 16.34-7.054 1.968-0.707 3.621-2.053 4.98-3.276 1.324-0.518 2.517-1.338 3.671-2.131 0.615-0.423 1.252-0.861 1.902-1.248 0.469 0.097 0.954 0.146 1.483 0.146 1.374 0 2.766-0.327 4.113-0.644l0.412-0.098c3.635-0.254 6.463-1.284 8.419-3.073 0.184-0.208 0.472-0.526 0.752-0.836 0.236-0.263 0.465-0.517 0.625-0.695 0.143-0.024 0.342-0.059 0.55-0.096 0.254-0.046 0.514-0.092 0.683-0.12l0.042-6e-3 -1e-3 -0.043c-0.012-0.695 0.011-1.399 0.033-2.081 0.034-1.072 0.068-2.181-0.032-3.262 0.789-0.811 1.579-1.646 2.343-2.455 1.758-1.859 3.575-3.781 5.503-5.535 1.641-1.443 2.545-3.433 3.42-5.357 0.375-0.824 0.762-1.675 1.201-2.471 0.779-1.653 1.94-3.088 3.063-4.476 0.812-1.003 1.65-2.04 2.341-3.155 0.142-0.121 0.325-0.276 0.523-0.446 0.449-0.382 0.998-0.85 1.35-1.117l0.035-0.053s0.029-0.025 0.023-0.035c0.13-0.197 0.321-0.479 0.514-0.764 0.196-0.291 0.39-0.578 0.52-0.777 1.07-0.082 1.602-0.671 1.58-1.747 3.15-1.879 5.045-5.099 6.876-8.214 1.151-1.957 2.34-3.98 3.832-5.657 0 0 0.72-0.434 0.724-0.456 0.011-0.058 0.024-0.147 0.037-0.236 0.012-0.078 0.023-0.152 0.034-0.21 1.48-0.664 2.765-1.794 3.62-3.19 1.864-1.726 3.044-3.953 4.184-6.107 0.91-1.719 1.851-3.494 3.134-5.005 1.132-0.543 2.295-1.122 3.419-1.68l0.633-0.314c0.528-0.093 1.385-0.245 2.15-0.38l1.121-0.199c0.761 0.444 1.564 0.671 2.391 0.671 0.582 0 1.189-0.111 1.8-0.33 0.706-0.186 0.896-0.721 0.839-1.159-0.072-0.553-0.539-1.125-1.195-1.125-0.137 0-0.277 0.03-0.417 0.082-0.657-0.01-1.958-0.031-2.604-0.042-2.503-0.657-4.529-0.964-6.374-0.964-0.613 0-1.217 0.038-1.798 0.106 0.01-0.722 0.01-2.104 0.01-2.806 0 0 0-0.161-1e-3 -0.16 0.021-1.878-0.106-3.797-0.386-5.708l-0.096-5e-3c-0.768 3.06-1.195 6.196-1.512 8.86l-0.644 1.054c-0.212 0.135-0.536 0.338-0.853 0.536-0.278 0.173-0.55 0.343-0.734 0.459l-0.036 0.023 0.045 0.098c-1.428 1.123-2.807 2.472-4.113 3.984 0 0-0.05 0.089-0.063 0.113-0.251 0.45-0.736 1.32-0.987 1.769-0.804 0.814-1.64 1.623-2.45 2.406-1.646 1.592-3.348 3.238-4.863 5.014-0.799 1.316-1.499 2.72-2.175 4.079-1.06 2.13-2.157 4.333-3.67 6.247-0.229 0.182-0.572 0.452-0.917 0.721-0.346 0.271-0.694 0.542-0.944 0.742l0.046 0.324c-1.761 1.894-3.369 3.994-4.787 6.237 0 0-0.021 0.036-0.026 0.044l-0.024 0.041c-1.714 3.068-4.042 5.762-6.297 8.366-0.771 0.892-1.569 1.814-2.33 2.736 0 0-0.05 0.061-0.049 0.061-2.081 2.429-3.882 5.12-5.624 7.726-0.802 1.2-1.631 2.441-2.477 3.64 0 0-0.068 0.057-0.099 0.081-0.368 0.309-0.768 0.609-1.157 0.898-1.156 0.863-2.347 1.759-2.968 3.096-0.214-0.083-0.459-0.128-0.734-0.128-0.925 0-1.974 0.465-2.552 1.131-0.332 0.383-0.479 0.807-0.434 1.226-3.386 0.716-6.519 2.458-9.548 4.144-1.458 0.812-2.965 1.651-4.5 2.372 0 0-0.098 0.045-0.087 0.049-3.711 2.217-7.899 3.394-11.95 4.529-2.208 0.618-4.49 1.258-6.674 2.06-4.698 2.176-9.272 4.36-13.574 7.148-3.2 2.228-6.742 4.048-10.168 5.808-4.965 2.551-10.098 5.188-14.267 9.115-0.273 0.136-0.794 0.382-1.104 0.52l-0.086 0.038 0.029 0.015c-2.983 2.885-6.458 4.752-10.688 6.884-0.219-0.064-0.461-0.1-0.726-0.1-1.13 0-2.442 0.59-3.12 1.401-0.397 0.477-0.559 1.005-0.48 1.53-1.283 0.025-2.097 0.939-2.884 1.829-0.166 0.187-0.323 0.363-0.484 0.533-0.23 0.11-0.566 0.268-0.909 0.429-0.342 0.161-0.678 0.32-0.926 0.438l3e-3 -0.042s-0.087 0.082-0.106 0.102c-0.614 0.584-1.15 1.296-1.668 1.985-1.055 1.407-2.148 2.86-3.962 3.273-0.848-0.077-2.481-0.224-3.457-0.312l-0.21-0.019-0.08-0.135c-1.236-2.073-2.515-4.216-3.911-6.225-0.544-0.943-1.176-1.797-1.787-2.622-0.108-0.146-0.216-0.291-0.323-0.437l-0.1-0.135 0.011 0.167c0.043 0.637 0.155 2.321 0.198 3.144-0.547 0.832-0.726 1.514-0.53 2.029 0.168 0.444 0.621 0.767 1.335 0.965 0 0-0.293 1.167-0.286 1.205 1.198 1.821 1.002 3.849 0.813 5.809-0.1 1.041-0.203 2.117-0.101 3.166-0.626 1.464-1.169 2.979-1.612 4.504-1.737 3.778-3.413 7.656-5.033 11.406-1.269 2.935-2.581 5.971-3.914 8.938 0 0-0.507 0.724-0.516 0.738-1.866 2.479-2.94 5.386-3.978 8.2-0.654 1.771-1.329 3.603-2.197 5.31-1.088 0.87-1.97 1.964-2.822 3.022-0.306 0.38-0.621 0.773-0.941 1.148l-0.024 0.029 0.05 0.07c-2.085 1.861-3.419 4.428-3.795 7.267l-0.087-7e-3c-0.146 0.438-0.296 0.875-0.447 1.314-0.51 1.48-1.037 3.011-1.386 4.581-1.874 2.124-2.78 5.163-2.768 9.288-0.583 1.031-1.692 1.539-2.765 2.028-0.147 0.068-0.292 0.133-0.43 0.199-0.247-0.41-0.479-0.828-0.704-1.235-0.46-0.831-0.896-1.616-1.463-2.351-2.081-5.05-4.665-9.935-7.005-14.87-1.785-4.685-3.455-9.423-5.569-13.972-0.081-0.956-0.468-1.868-0.842-2.749-0.225-0.528-0.436-1.027-0.585-1.532-0.15-1.406-0.472-2.802-0.783-4.152-0.428-1.852-0.87-3.768-0.864-5.715-0.035-1.875-0.017-3.776 0-5.615 0.024-2.585 0.048-5.257-0.073-7.884 2.003-0.717 4.086-1.302 6.1-1.868 0.755-0.212 1.535-0.432 2.301-0.655l0.04-0.011-0.095-0.818c0.282-0.125 0.69-0.308 1.098-0.491 0.391-0.175 0.778-0.349 1.038-0.465 0.267-0.093 0.674-0.235 1.075-0.375 0.342-0.12 0.67-0.236 0.913-0.302 0 0 0.071-0.043 0.096-0.06 1.261-0.793 2.847-1.909 3.98-3.517 1.679-1.817 1.475-4.243 1.277-6.589-0.087-1.03-0.176-2.093-0.096-3.067 0.265-1.522-0.353-2.95-0.951-4.33-0.243-0.56-0.491-1.138-0.67-1.706l-0.018-0.042s-0.016-0.051-0.023-0.048c-1.313-3.01-3.117-6.023-5.511-9.204l0.033-1e-3s-0.091-0.08-0.11-0.094c-2.445-2.12-5.595-3.194-9.365-3.194-0.996 0-2.055 0.075-3.147 0.223-1.368-0.088-2.782-0.134-4.206-0.135-0.262-0.834-0.526-1.665-0.788-2.493-0.289-0.909-0.575-1.813-0.857-2.713-0.037-0.308-0.094-0.767-0.151-1.227-0.049-0.396-0.095-0.773-0.131-1.072l0.305 0.349 0.027-0.078c0.54-1.509 1.166-3.022 1.772-4.483 0.95-2.294 1.933-4.667 2.609-7.095 1.309-2.794 2.51-5.694 3.673-8.497 1.154-2.785 2.347-5.664 3.646-8.444 1.082-2.449 2.933-4.422 4.724-6.329 0.739-0.788 1.504-1.603 2.204-2.439 2.961-3.506 6.274-6.783 9.478-9.95 0.413-0.408 0.827-0.817 1.24-1.227 3.973-4.275 8.621-7.942 13.115-11.488 3.102-2.446 6.309-4.976 9.269-7.685 2.157-1.655 4.234-3.499 6.241-5.284 3.864-3.434 7.858-6.984 12.599-9.323 2.966-1.704 6.003-3.401 8.94-5.043 7.08-3.957 14.401-8.048 21.315-12.552 9.183-5.762 17.514-10.852 25.462-15.557 1.714-0.909 3.489-1.777 5.205-2.617 3.467-1.697 7.052-3.45 10.339-5.635 3.919-2.614 8.372-4.896 13.603-6.976 0 0 0.091-0.038 0.113-0.048 3.441-1.43 6.441-2.993 9.166-4.777 3.558-1.306 6.464-3.859 8.838-6.183 3.271-2.802 6.889-5.247 10.387-7.611 2.88-1.946 5.857-3.959 8.628-6.16 5.535-3.924 9.907-9.265 14.135-14.429 0.914-1.116 1.859-2.27 2.798-3.388l0.475-0.064 0.118-0.667c1.639-1.65 3.198-3.429 4.705-5.149 0 0 0.543-0.62 0.552-0.63 0 0 0.136-0.943 0.141-0.979 0.041-0.285 3.276-4.159 3.739-5.419 0.931-2.536 1.943-5.003 2.656-7.617 1.395-5.117 2.06-10.434 1.952-15.737-0.045-2.226-0.263-4.564-1.509-6.41s-3.832-2.961-5.783-1.889c-1.634 9.335-3.268 18.671-4.901 28.006-4.055 6.843-7.84 13.663-12.885 19.83-2.138 2.613-4.348 5.314-6.216 8.201-1.066 1.053-2.23 2.046-3.357 3.006-1.59 1.356-3.234 2.758-4.627 4.352-0.19 0.123-0.38 0.246-0.572 0.37-1.462 0.941-2.973 1.915-4.058 3.302-1.085 0.837-2.214 1.662-3.307 2.46-2.882 2.106-5.859 4.287-8.354 6.919v-0.745l-0.079 0.062c-0.296 0.233-0.595 0.462-0.893 0.692-1.122 0.861-2.278 1.753-3.302 2.766-2.505 1.175-4.933 2.521-7.422 3.92-6.406 3.577-12.959 7.141-19.296 10.588-4.003 2.178-8.143 4.43-12.203 6.661-6.443 3.364-12.691 7.305-18.732 11.115-3.212 2.026-6.533 4.12-9.844 6.104l-0.753 0.435c-7.724 4.467-15.709 9.087-23.333 14.001-2.746 2.094-5.618 4.123-8.395 6.084-5.037 3.559-10.245 7.239-14.904 11.447-3.249 2.711-6.534 5.485-9.713 8.169-5.001 4.224-10.173 8.592-15.324 12.813-2.729 2.094-4.734 4.915-6.672 7.643-0.961 1.354-1.955 2.754-3.026 4.046-0.783 1.043-1.655 2.052-2.497 3.028-1.287 1.492-2.618 3.034-3.667 4.732-2.694 2.32-3.678 5.682-4.627 8.935-0.75 2.564-1.525 5.217-3.13 7.362-1.13 1.357-1.509 3.087-1.877 4.76-0.084 0.382-0.171 0.777-0.266 1.159-8e-3 0.031-5.324-4.756-5.785-5.396-6.748-9.375-29.841-14.264-37.847-4.36-3.302 4.085-3.978 8.781-5.17 13.612-0.168 0.68-0.338 1.374-0.457 1.871-1.284-2.83-2.687-5.508-3.894-7.759-0.695-1.8-1.591-3.541-2.458-5.225-0.736-1.428-1.497-2.906-2.136-4.426l-0.236-0.096c-1.579-1.974-3.087-3.979-4.226-5.506-2.792-3.824-5.855-7.679-9.368-11.787-1.43-2.287-3.333-4.249-5.174-6.144-0.684-0.706-1.393-1.434-2.065-2.169-1.876-1.88-3.703-3.873-5.468-5.802-3.074-3.356-6.254-6.824-9.794-9.809 0 0-0.069-0.054-0.093-0.073-1.319-1.035-2.641-2.112-3.92-3.152-1.906-1.551-3.877-3.155-5.872-4.652-4.558-3.853-9.463-7.822-15.436-12.494-1.149-0.95-2.35-1.866-3.511-2.751-0.832-0.634-1.691-1.29-2.519-1.951 0 0-0.056-0.041-0.059-0.044l-0.026-0.02c-1.179-0.863-2.323-1.82-3.43-2.746-1.789-1.496-3.638-3.044-5.67-4.222-8.954-7.369-18.942-15.013-30.534-23.369-4.24-3.318-8.836-6.259-13.28-9.103-1.088-0.697-2.214-1.417-3.316-2.131-2.178-1.528-4.477-2.947-6.701-4.319-2.1-1.296-4.272-2.636-6.332-4.063-2.372-1.835-4.688-3.814-6.927-5.729-1.984-1.695-4.034-3.448-6.116-5.094-1.118-1.047-2.286-2.086-3.416-3.092-4.191-3.731-8.526-7.589-11.289-12.673l-0.026-0.047-0.046 0.031c-0.319-0.258-0.929-0.76-1.248-1.025-1.86-2.872-3.443-5.759-4.707-8.581-2.04-4.672-6.037-8.169-9.016-12.223-3.416-4.65-6.302-9.694-8.596-14.988-1.1-6.941-1.872-13.818-2.72-20.771-0.294-2.415 0.475-6.976-1.205-9.06-2.6-3.226-4.7-0.186-5.566 2.518-1.904 7.38-2.103 14.979-0.572 21.98 0.982 2.947 2.302 5.821 3.578 8.599 0.812 1.768 1.651 3.595 2.397 5.426 0 0 0.086 0.409 0.09 0.412 0.082 0.187 0.163 0.377 0.245 0.568 0.509 1.19 1.036 2.419 1.933 3.4 5.396 9.628 12.008 17.708 19.655 24.017 0.732 0.759 1.562 1.494 2.364 2.205 0 0 0.31 0.274 0.309 0.275l0.037 0.031 0.034 0.031c2.204 1.891 4.284 4.001 6.295 6.041 3.084 3.13 6.274 6.366 9.987 8.889 5.707 5.289 12.155 9.853 18.39 14.267 2.47 1.749 5.024 3.557 7.497 5.386l0.039 0.026s0.041 0.031 0.042 0.029c1.675 1.14 3.345 2.363 4.96 3.547 0 0 0.396 0.29 0.4 0.293 0.903 0.684 1.841 1.361 2.749 2.014 1.073 0.774 2.182 1.574 3.232 2.418l0.064 0.016s0.03 0.023 0.04 0.01c0.19 0.048 0.455 0.115 0.724 0.183 0.268 0.068 0.532 0.136 0.717 0.182 4.522 3.654 9.382 7.04 14.081 10.314 5.641 3.93 11.474 7.994 16.789 12.567 2.695 2.365 5.562 4.621 8.336 6.803 0.992 0.78 2.018 1.587 3.022 2.388 0.987 0.784 1.973 1.572 2.959 2.361 1.789 1.43 3.639 2.908 5.478 4.355 0 0 0.041 0.032 0.041 0.031 2.175 1.749 4.43 3.475 6.61 5.144 4.53 3.468 9.213 7.054 13.447 11.034 0.337 0.782 0.89 1.405 1.644 1.851 0.326 0.29 0.627 0.619 0.945 0.969 0.761 0.835 1.551 1.693 2.703 1.96-6e-3 0.662 0.356 1.436 0.981 2.081 0.638 0.656 1.399 1.033 2.089 1.033 0.057 0 0.114-5e-3 0.169-0.01-0.12 0.92 0.315 1.551 1.302 1.866 2.777 3.038 5.706 5.974 8.708 8.734l0.07 0.035c4.131 5.538 8.916 10.575 13.474 15.193 0 0 0.111 0.323 0.121 0.339 1.486 1.712 2.83 3.525 4.062 5.229 2.647 6.158 6.202 11.966 9.639 17.583 0 0 0.11 0.18 0.109 0.18 0 0 0.025 0.039 0.03 0.047 0 0 0.022 0.036 0.022 0.035 0.13 0.203 0.259 0.407 0.388 0.612 0.658 1.047 1.339 2.129 2.286 3.006l-0.134 1.601c-0.328 1.019-0.599 1.949-0.828 2.844l-0.322 0.193c-0.775 0.465-1.943 1.166-2.583 1.544-0.764 0.145-1.58 0.304-2.38 0.496-1.893-0.558-3.441-0.818-4.87-0.818-1.326 0-2.512 0.225-3.63 0.688-0.256 0.115-0.642 0.289-1.028 0.464-0.38 0.172-0.759 0.344-1.031 0.465l-0.163 0.073 0.058 6e-3c-1.992 1.431-3.598 2.914-4.897 4.534-0.243 0.137-0.722 0.391-1.011 0.536l-0.015-0.031-0.041 0.06s-0.032 0.016-0.024 0.032c-0.23 0.338-0.52 0.659-0.803 0.97-2.755 3.031-3.301 3.827-2.974 8.138 0.393 5.194 1.451 10.179 4.045 14.677 0.314 0.542 0.638 1.104 0.948 1.659 0 0 0.02 0.034 0.022 0.036 0 0 0.029 0.052 0.03 0.051 0.092 0.154 0.213 0.362 0.337 0.576 0.12 0.206 0.234 0.402 0.298 0.554 0 0 0.076 0.083 0.092 0.101l0.775 0.854-0.455-0.158 0.102 0.131c0.946 1.21 2.063 2.302 3.144 3.357 1.432 1.398 2.913 2.844 4.011 4.586 0.089 1.619 0.676 3.201 1.244 4.732 0.841 2.267 1.635 4.408 0.991 6.708-0.551 0.962-0.987 2.012-1.408 3.03-0.168 0.405-0.342 0.825-0.522 1.237l-0.662 1.458c-1.742 1.925-3.405 3.836-4.591 6.055-1.859 3.95-4.183 7.726-6.43 11.376-2.455 3.988-4.993 8.113-6.94 12.476l-0.021 0.063s-0.015 0.033-0.012 0.036l-0.382 1.157c-0.215 0.65-0.444 1.346-0.594 1.802-1.482-0.262-1.838-1.542-2.179-2.783-0.117-0.424-0.237-0.863-0.402-1.252-0.422-1.249-0.856-2.516-1.277-3.742-1.419-4.133-2.885-8.407-4.092-12.68-1.887-7.535-4.431-14.792-7.092-22.184-0.48-1.515-1.03-3.039-1.563-4.512-1.265-3.5-2.572-7.119-3.013-10.897 0 0-0.022-0.091-0.03-0.119-0.447-1.885-1.038-3.78-1.757-5.634 0 0-0.062-0.158-0.062-0.157-0.291-0.846-0.656-1.653-1.098-2.391-1.047-1.749-1.334-3.739-2.63-5.439-1.674-2.197-3.962-4.122-5.878-6.116-1.012-1.053-1.24-1.862-2.752-2.889-1.53-1.039-3.345-1.885-4.988-2.746-1.12-0.587-2.28-1.194-3.373-1.879-0.131-0.022-0.327-0.05-0.52-0.077-0.087-0.012-0.172-0.024-0.251-0.035l0.768-0.222-0.106-0.056c-3.192-1.703-6.538-3.205-9.774-4.658-0.612-0.274-1.223-0.549-1.88-0.846-2.957-1.297-5.923-2.938-9.057-5.016 0 0-0.08-0.043-0.105-0.057-0.157-0.086-0.313-0.171-0.467-0.256-0.861-0.475-1.675-0.921-2.554-1.274-6.896-4.147-15.382-5.21-22.2-6.066-2.321-0.62-4.523-1.661-6.653-2.667-2.208-1.044-4.491-2.122-6.91-2.735-2.686-1.104-5.484-2.052-7.868-2.835-0.121-0.064-0.242-0.129-0.364-0.193-0.904-0.482-1.839-0.979-2.834-1.119-2.303-1.01-4.916-2.267-6.779-4.416-0.443-0.593-1.329-1.795-1.815-2.462 0 0-0.059-0.081-0.06-0.078-0.208-0.264-0.401-0.517-0.584-0.758 0 0-0.085-0.112-0.084-0.112l-0.02-0.026s-0.04-0.053-0.041-0.052c-0.291-0.374-0.584-0.745-0.875-1.115-0.927-1.176-1.885-2.392-2.77-3.661 0 0-0.052-0.075-0.06-0.052l-1.151-1.013c-1.129-1.476-2.356-2.937-3.645-4.343-0.614-0.964-1.322-1.854-2.006-2.717-0.132-0.166-0.264-0.332-0.408-0.515l-0.167-0.01c-2.36-3.065-4.541-5.777-7.302-7.946-0.869-0.775-2.009-1.797-3.13-2.837l-0.328-0.021c-0.235-0.146-0.578-0.36-0.923-0.576-0.339-0.213-0.675-0.424-0.91-0.569 0.094-0.523-0.105-1.139-0.558-1.698-0.587-0.721-1.473-1.206-2.207-1.206-0.152 0-0.294 0.029-0.431 0.069 0.012-1.437-1.037-2.441-2.058-3.412-0.493-0.469-0.998-0.953-1.36-1.473l-0.031-0.035s-0.029-0.043-0.034-0.038l-0.214-0.237c-0.955-1.061-1.857-2.064-2.795-3.092l-0.032-0.011-0.051-0.054-0.01 0.033-0.447-0.155c-1.163-1.741-2.656-3.221-4.1-4.653-1.112-1.102-2.262-2.243-3.249-3.492l0.02-0.021-0.055-0.021s-0.027-0.034-0.043-0.017l-0.825-0.318c-1.051-1.213-2.153-2.414-3.219-3.576-2.029-2.211-4.126-4.496-5.941-6.938-0.814-2.765-1.487-5.625-2.137-8.389-0.639-2.716-1.299-5.525-2.094-8.247l-0.01-0.035h-3.235v0.049c-0.01 3.012-0.01 6.077 0 9.109-1.897-0.949-3.767-1.856-5.76-2.552-1.118-0.726-2.33-1.301-3.502-1.857-0.364-0.172-0.727-0.344-1.086-0.52l-0.11-0.054 0.043 0.115c0.297 0.8 0.643 1.626 1.062 2.528 0.722 3.411 3.679 5.37 6.54 7.266 0.805 0.533 1.564 1.037 2.279 1.573 0.17 0.134 0.42 0.335 0.674 0.539 0.278 0.224 0.56 0.45 0.745 0.598 1.38 1.312 2.798 2.649 4.169 3.942l0.239 0.226 0.753 0.762c0.824 0.834 1.677 1.697 2.541 2.553 0 0 0.06 0.371 0.069 0.392 0.336 0.45 0.673 0.904 1.013 1.364 0.432 0.582 0.869 1.17 1.316 1.771 0.572 0.846 1.326 1.956 2.094 3.081l0.042 0.044s0.022 0.032 0.027 0.029c1.205 1.291 2.493 2.643 3.937 4.132l-0.012 0.031 0.047 4e-3 0.04 0.042 0.014-0.036 0.931 0.086c-0.059 0.596 0.21 1.286 0.754 1.907 0.646 0.735 1.509 1.193 2.252 1.193 0.043 0 0.084-3e-3 0.126-6e-3l0.117 1.157-0.041 0.014 0.046 0.042 5e-3 0.043 0.03-0.011c1.63 1.501 3.226 3.092 4.769 4.631 1.745 1.742 3.548 3.541 5.414 5.22 0.598 1.298 1.564 2.419 2.5 3.504 0.426 0.493 0.867 1.003 1.267 1.526 1.542 1.655 2.837 3.581 4.088 5.442 2.216 3.298 4.508 6.708 8.241 8.681 0.432 0.439 0.814 0.995 1.183 1.531 0.74 1.076 1.507 2.186 2.77 2.552-0.134 0.572 0.075 1.295 0.576 1.948 0.588 0.767 1.433 1.262 2.153 1.262 0.075 0 0.149-8e-3 0.221-0.019 0 0 0.109 0.789 0.11 0.805l1.072 1.02c0.151 1.59-0.916 2.805-1.95 3.98-0.499 0.567-1.015 1.155-1.385 1.813 0.303 0.862 0.682 1.73 1.048 2.569 0.2 0.459 0.406 0.932 0.6 1.403l-0.04 0.057 0.063-2e-3 0.021 0.052 0.037-0.053c0.477-0.014 0.969-0.022 1.463-0.022 4.209 0 8.455 0.521 12.56 1.025 0.689 0.084 1.377 0.168 2.066 0.251l-0.345 0.058 2e-3 0.097c2.587 0.338 5.094 1.204 7.519 2.042 7.192 2.486 14.538 4.491 21.775 6.831 2.52 1.118 4.947 2.363 7.443 3.659 0.998 0.533 2.012 1.085 2.992 1.619 0.707 0.385 1.417 0.772 2.131 1.156l-0.029 0.013 0.118 0.037c3.195 2.009 7.048 4.165 11.414 4.934 1.399 0.589 2.84 1.432 4.295 2.515l1.303 0.079-0.323 0.576 0.051 0.021c0.303 0.121 0.755 0.302 1.211 0.487 0.481 0.194 0.967 0.39 1.29 0.52 0.682 1.114 1.99 1.737 3.256 2.338 0.77 0.367 1.566 0.745 2.21 1.229 0.345 0.848 0.789 1.667 1.36 2.509 0.554 1.976 0.986 4.015 1.404 5.988 0.455 2.145 0.925 4.363 1.554 6.512 0 0-0.092 0.532-0.094 0.545l0.212 0.562c0.595 4.289 1.73 8.472 2.763 11.999 0.295 1.94 0.801 3.883 1.29 5.761 0.15 0.576 0.305 1.172 0.452 1.759 0.058 0.271 0.146 0.678 0.235 1.085 0.089 0.406 0.177 0.813 0.236 1.089l0.091 0.472c0.608 3.134 1.237 6.374 2.39 9.431 0.921 2.441 1.142 5.107 2.119 7.527 0.205 0.507 3.073 5.921 3.014 5.918 0.287 0.017 0.575 0.035 0.862 0.052-0.011 0.374-0.023 0.748-0.034 1.122 0 2.296 4.012 7.037 5.188 9.092 1.649 2.879 3.398 5.524 5.477 8.118 1.799 2.245 3.659 4.567 4.776 7.309 0 0 0.06 0.147 0.061 0.141 0.425 1.081 0.94 2.123 1.49 3.222 0 0 0.036 0.072 0.032 0.075l0.026 0.04s0.022 0.045 0.025 0.043c1.842 2.801 1.742 6.094 1.641 9.28-0.055 1.726-0.111 3.511 0.14 5.207-0.032 0.173-0.075 0.426-0.119 0.682s-0.088 0.513-0.12 0.689c-0.339 1.211-0.628 2.458-0.864 3.706l-0.954-0.371c-2.056-3.581-5.189-6.282-8.219-8.894-2.599-2.24-5.286-4.557-7.276-7.428l-0.03-0.022s-0.037-0.054-0.049-0.037l-0.463-0.35c-0.562-0.794-1.123-1.613-1.665-2.404-1.647-2.406-3.351-4.892-5.356-7.078-0.574-0.503-1.151-1.005-1.727-1.506-3.483-3.034-7.085-6.171-10.307-9.599l-0.407-0.032c-6.24-6.952-13.23-13.798-21.368-20.929-1.205-1.118-2.628-1.978-4.003-2.811-1.742-1.053-3.543-2.143-4.888-3.756-2.283-2.595-4.461-4.218-6.853-5.109-0.442-0.372-1.341-1.128-1.805-1.509 0 0 0.051-0.19 0.037-0.208-0.638-0.875-1.273-1.759-1.919-2.648-0.452-0.078-0.916-0.244-1.364-0.405-0.63-0.226-1.282-0.46-1.924-0.46-0.313 0-0.598 0.058-0.87 0.167-0.645-1.184-1.646-1.585-3-1.171l-0.374 1.007c-0.177 0.477-0.362 0.975-0.479 1.291-0.531 1.089-1.133 2.538-1.135 4.125-4.853-0.214-9.198-0.32-13.281-0.32-6.141 0-11.703 0.235-17.005 0.739-1.583 0.129-3.214 0.264-4.811 0.5-1.251-0.136-2.535-0.202-3.925-0.202-3.519 0-7.077 0.441-10.518 0.869-0.602 0.074-1.202 0.149-1.802 0.221-2.367-0.031-4.687-0.06-7.047-0.06-2.604 0-4.895 0.036-7.006 0.108 0 0-0.037 4e-3 -0.039 4e-3 0 0-0.064 3e-3 -0.062 8e-3 -0.67 0.082-1.349 0.174-2.005 0.264-6.681 0.914-11.883-0.727-18.35-2.394 0.234-0.978-1.258-1.797-1.958-1.074-7.814-4.952-16.713-8.359-24.895-12.695-5.545-2.939-11.277-5.975-17.093-8.576l0.36-0.104-0.112-0.056c-6.924-3.466-13.919-7.082-20.683-10.58-53.557-27.696-108.57-55.21-166.21-73.209-1.272-0.396-2.587-0.807-3.874-1.228-6.442-1.945-12.792-4.481-18.934-6.934-31.955-12.765-64.788-23.191-97.789-32.875-16.717-4.906-33.49-9.617-50.259-14.343-15.837-4.463-31.812-7.42-47.703-11.558-7.972-2.076-16.238-3.536-24.233-4.949-3.597-0.636-7.316-1.294-10.957-1.999 0 0-0.053-9e-3 -0.063-0.011 0 0-0.034-7e-3 -0.034-6e-3 -3.511-0.587-7.085-1.138-10.542-1.671-4.856-0.749-9.875-1.524-14.789-2.422l-0.076 1e-3s-0.031-5e-3 -0.034 1e-3c-0.296 5e-3 -0.723 0.01-1.154 0.015-0.268 3e-3 -0.524 6e-3 -0.762 9e-3l0.217-0.054-4e-3 -0.096c-1.865-0.294-3.754-0.63-5.582-0.955-2.804-0.499-5.701-1.012-8.572-1.385l0.423-0.327-0.121-0.013c-0.333-0.037-0.837-0.092-1.34-0.146-0.501-0.055-1.002-0.109-1.336-0.146-1.2-0.239-2.419-0.519-3.598-0.79-54.993-12.628-112.84-20.474-169.33-20.474-1.782 0-3.415 0.034-4.991 0.104h-0.962c-17.793 0-32.606-0.334-46.611-1.052 0 0-0.038-1e-3 -0.039-1e-3 0 0-0.061-3e-3 -0.061-2e-3 -0.807-0.024-1.754-0.048-2.731-0.048-1.297 0-2.438 0.043-3.49 0.133-2.765 0.025-5.57 0.15-8.282 0.27-2.842 0.126-5.781 0.256-8.674 0.272-51.861 0.293-102.88 11.838-150.4 32.41-25.876 11.202-53.28 23.51-73.456 43.752-1.969 1.985-4.004 4.037-6.025 6.038-3.226 3.079-5.685 6.898-8.063 10.592-0.474 0.737-0.964 1.498-1.452 2.24-2.263 2.864-4.284 5.979-6.239 8.992-20.492 31.59-22.952 78.151 5.515 105.66l0.308 0.298c0.833 0.987 1.764 1.928 2.664 2.839 0.278 0.28 0.555 0.561 0.845 0.859l0.25 0.011c0.839 0.921 1.73 1.832 2.647 2.707 1.137 1.173 2.325 2.339 3.473 3.466 0.875 0.859 1.78 1.747 2.66 2.636 0.469 0.448 0.929 0.948 1.373 1.432 5.377 5.854 17.098 7.961 24.501 10.341 21.818 7.015 46.525 8.394 64.019 24.765 4.919 7.718 12.026 11.573 20.029 15.36 10.112 4.781 21.083 7.36 32.193 8.362 10.406 0.939 23.807-2.349 33.459 2.007 6.572 2.966 11.263 8.226 17.107 12.254 6.282 4.33 12.635 6.778 19.768 9.221 2.972 1.018 6.15 1.196 9.222 1.37 1.212 0.068 2.465 0.138 3.686 0.26 1.307 0.166 2.741 0.247 4.384 0.247 1.514 0 3.054-0.068 4.543-0.133l0.492-0.021c1.385-0.019 2.354-0.037 2.88-0.052 1.84 0.148 3.72 0.157 5.539 0.165 2.916 0.012 5.931 0.026 8.856 0.616 1.203 0.241 2.459 0.407 3.674 0.568 5.303 0.702 8.607 2.539 13.036 5.28 14.977 9.585 27.448 20.591 45.346 24.708 11.852 2.726 25.874 1 36.668 6.505 3.275 1.67 6.66 3.398 10.227 4.557 3.729 1.26 8.012 2.824 11.636 5.458 0.748 0.603 1.549 1.171 2.324 1.719 5.88 4.162 10.035 10.333 16.099 14.509 7.948 5.473 17.65 9.356 27.082 11.299 1.492 0.427 3.007 0.892 4.472 1.341 5.383 1.653 10.949 3.361 16.706 3.583 1.225 0.258 2.505 0.397 3.744 0.533 10.288 1.123 17.261 9.631 25.607 14.557 0.762 0.992 1.771 1.764 2.747 2.51 0.272 0.208 0.552 0.424 0.816 0.644 0 0 0.091 0.062 0.107 0.075 5.163 3.534 6.207 10.12 10.713 14.29 5.933 5.491 13.284 7.645 20.447 10.878 1.142 0.516 2.324 1.048 3.473 1.613 1.696 0.853 3.212 1.653 4.621 2.452l0.083 0.029s0.025 0.014 0.031 0.01c1.851 0.661 3.569 1.13 5.25 1.435 0 0 0.059 9e-3 0.062 9e-3 0 0 0.038 7e-3 0.038 6e-3 2.154 0.34 4.333 0.768 6.441 1.182l0.845 0.166c5.792 1.848 11.925 4.318 19.299 7.772 0.767 0.724 1.449 1.568 2.108 2.383 0.286 0.354 0.582 0.72 0.885 1.077 3.342 6.174 8.641 10.896 13.386 14.701l0.352 0.414 0.297 0.184c1.68 1.794 3.782 3.1 5.815 4.363 5.467 4.175 10.066 7.214 14.472 9.561 4.024 3.354 9.289 4.286 14.338 4.952 2.459 0.776 5.003 1.324 7.474 1.856 2.825 0.689 5.684 1.448 8.449 2.182 1.959 0.521 3.984 1.058 5.988 1.569 1.478 0.588 3.03 1.041 4.531 1.479 1.616 0.472 3.287 0.959 4.867 1.614 4.976 3.099 9.75 6.682 14.366 10.146 5.231 3.926 10.64 7.986 16.373 11.364 1.127 1.136 2.513 2.008 3.853 2.852l0.316 0.199c0.059 0.03 0.172 0.091 0.228 0.135 2.3 1.304 4.904 2.578 8.192 4.008 0 0 0.062 0.187 0.081 0.196 1.308 0.608 2.612 1.285 3.873 1.94 1.635 0.849 3.326 1.727 5.053 2.47l0.775 0.455c4.734 2.777 9.63 5.647 15.164 6.649 0 0 0.649 0.252 0.674 0.259 0.926 0.322 1.881 0.616 2.804 0.9 2.336 0.72 4.751 1.464 6.938 2.715 0.812 0.481 1.667 1.033 2.544 1.645-0.344 0.688-0.713 1.378-1.072 2.044-3.342 6.209-9.317 9.239-10.467 16.844-0.737 4.872-0.065 9.832 0.029 14.759 0.228 11.9-4.32 23.01-8.838 33.796-4.771 11.39-4.963 23.717-5.35 35.867-0.192 6.046 2.904 11.373 6.148 16.235 0.708 1.061 9.376 14.543 8.783 14.691l0.095-0.015v-0.071c2.607 4.772 4.258 10.145 4.9 15.989 1.209 11.008-1.636 22.066-2.438 33.199-0.329 4.571-0.534 9.214 0.442 13.691 3.206 14.717 21.658 22.819 34.328 27.531 9.033 3.359 17.091 10.388 23.433 17.482 0.18-0.365 0.36-0.731 0.539-1.096-0.617 1.277 1.258 6.231 1.555 7.706 0.527 2.612 0.922 5.135 1.182 7.787 0.595 6.057 1.055 12.205 3.157 17.971 1.266 3.47 3.939 6.46 5.799 9.724 1.425 2.573 3.665 4.525 5.832 6.413 9.874 8.602 23.063 11.32 35.789 10.451 7.5-0.513 15.091 0.472 22.233 2.808 7.224 2.363 12.574 6.941 19.169 10.221 1.775 1.979 3.51 4.05 5.188 6.054 0.992 1.184 2.017 2.409 3.042 3.604 0.189 0.254 0.479 0.64 0.765 1.02 0.266 0.353 0.53 0.704 0.706 0.941 0.042 0.052 0.125 0.156 0.168 0.209 0.395 0.483 0.781 0.998 1.155 1.496 1.249 1.664 2.54 3.385 4.468 4.366 0.917 0.526 1.841 1.093 2.735 1.641 10.851 6.656 24.017 8.263 36.507 7.291 12.277-0.956 23.394-5.705 35.683-5.705 6.075 0 11.84 0.682 17.142 2.023l-0.357 0.106 0.143 0.05c5.059 1.759 10.079 3.084 14.923 3.94 0 0 0.208 0.272 0.226 0.276 2.111 0.462 4.238 1.017 6.296 1.554 2.863 0.747 5.823 1.52 8.797 2.055 1.052-0.064 2.139-0.108 3.189-0.15 8.278-0.33 16.498-1.803 22.931-7.393 3.582-3.113 6.712-6.779 10.661-9.41 5.432-3.619 10.972-3.841 17.211-4.177 7.6-0.41 14.975-1.01 22.57 0.053 2.726 0.381 5.462 0.888 8.211 0.744 4.817-0.252 9.642-3.764 13.813-6.015 5.365-2.895 10.514-6.168 15.618-9.495 7.141-4.654 10.686-13.527 18.66-16.806 10.429-4.289 15.817-17.95 18.74-27.948 3.846-13.16 8.2-28.796 16.759-39.801 5.22-6.712 6.191-15.386 6.476-23.61 0.358-10.35 0.074-20.74 0.581-31.079 0.529-10.792 2.936-21.404 4.417-32.082 1.966-14.169 3.614-28.429 5.928-42.542 3 5.25 2.036 11.566 2.136 17.359 0.118 6.867 0.237 13.734 0.355 20.6 0 33.262-0.444 66.887 5.013 99.784 1.5 9.044 3.06 18.201 5.467 27.052 3.054 11.23 5.395 23.159 8.454 34.589 2.647 9.893 5.895 19.684 10.546 28.832 2.361 4.643 5.076 9.108 8.194 13.282 1.093 1.463 3.586 5.879 5.304 6.458 2.271 0.766 4.228-1.82 5.661-3.444 0.917-1.037 1.864-2.11 2.951-2.898 0.177-0.167 0.441-0.417 0.704-0.668 0.231-0.218 0.452-0.428 0.624-0.591 0 0 0.079-0.076 0.095-0.093 1.864-1.802 3.192-4.054 4.475-6.233 0.286-0.486 0.583-0.989 0.879-1.479 0.664-1.129 1.378-2.265 2.068-3.364 2.05-3.261 4.171-6.634 5.319-10.387 5.639-10.41 10.563-21.204 14.811-32.253 3.862-10.046 8.636-21.078 9.321-31.91 0.044-0.694 0.089-1.412 0.148-2.104 1.022-6.599 2.449-13.246 3.829-19.675 0.284-1.327 0.57-2.653 0.853-3.99 1.377-5.398 2.157-11.014 2.911-16.445l0.051-0.37c0.864-5.831 1.535-11.584 2.083-16.45 0 0 4e-3 -0.057 4e-3 -0.06 0 0 4e-3 -0.04 2e-3 -0.04 0.182-3.097 0.36-5.625 0.561-7.949l4e-3 -0.053c0.19-2.487 0.267-4.9-0.578-7.109l0.194 0.317c1.533 2.901 2.154 6.182 2.754 9.354 0.275 1.452 0.559 2.954 0.927 4.409l0.02 0.535c0.065 1.7 0.132 3.458 0.292 5.223 0.995 11.003 2.654 22.058 6.64 32.418 3.583 9.313 9.755 21.897 19.529 26.045 0.832 0.477 1.72 0.979 2.643 1.492 0.129 0.497 0.378 1.391 0.544 1.988 0.904 3.249 0.015 8.807 0.674 12.568 0.967 5.521 2.546 10.934 4.673 16.119 7.871 19.185 23.429 35.369 44.753 38.494 0.521 0.037 1.071 0.164 1.603 0.286 0.662 0.153 1.345 0.311 2.013 0.311 0.353 0 0.672-0.045 0.983-0.139 2.138 0.531 4.37 0.742 6.53 0.946 0 0 0.042 2e-3 0.043 2e-3 0 0 0.056 5e-3 0.056 3e-3 0.61 0.033 1.73 0.113 2.285 0.153 0 0 1.307 0.46 1.312 0.476l0.029-5e-3 0.083 0.029-0.014-0.04 0.33-0.052 0.618 0.123c1.12 0.222 2.278 0.452 3.467 0.75 7.208 1.812 16.346 6.136 21.971 11.074 3.785 3.323 6.725 7.511 9.257 11.834 2.044 3.49 3.493 9.462 6.584 12.019 1.393 1.152 3.091 1.863 4.782 2.505 6.525 2.476 14.028 4.898 21.078 4.898 3.062 0 6.189-0.468 9.212-0.922 1.769-0.266 3.599-0.54 5.386-0.715 4.021-0.394 8.023-3.12 11.69-4.683 4.511-1.922 9.214-3.394 14.012-4.405 9.401-1.979 25.509-4.238 34.126 1.313 16.18 10.423 37.484 9.609 54.806 2.536 6.493-2.651 11.194-5.988 14.373-10.198 1.863-1.844 3.858-3.614 5.787-5.326 2.388-2.119 4.856-4.311 7.101-6.664 2.809-2.945 8.177-4.324 11.614-6.641 4.048-2.73 8.042-5.826 12.943-6.806 9.759-1.951 20.446 2.967 30.36 2.967 2.096 0 3.946-0.281 5.646-0.854 4.104-0.434 7.234-3.131 10.26-5.739 0.54-0.465 1.097-0.945 1.653-1.405 4.008-2.772 7.079-5.821 9.126-9.063 1.223-1.208 2.025-2.83 2.709-4.41 2.34-3.202 4.601-6.547 6.786-9.783 1.858-2.748 3.778-5.59 5.737-8.329 0.928-1.032 1.811-2.135 2.664-3.202 1.206-1.506 2.452-3.064 3.851-4.449l0.022-0.022-0.167-0.438c1.17-1.127 2.177-2.213 3.073-3.314l0.565-0.534c1.134-1.07 2.306-2.177 3.43-3.326 0 0 0.076-0.078 0.064-0.079 0.25-0.306 0.652-0.812 0.929-1.16l0.129-0.165c0.625-0.508 1.295-1.028 2.049-1.591 0 0 1.215-0.505 1.216-0.505 15.384-0.849 23.753-8.47 32.107-20.451 5.164-7.406 5.525-13.105 5.69-21.961 0.178-9.546-0.073-18.863-0.488-28.286-0.068-1.539-0.139-3.129-0.438-4.685-2.072-10.522-1.032-18.534 3.185-24.502 0.434-0.632 0.912-1.26 1.463-1.921 2.68-1.562 5.155-3.514 7.435-5.391 0.315-0.294 0.92-0.868 1.231-1.168 14.632-12.774 13.142-28.016 11.35-45.862-4.908-21.337-10.265-41.832-10.398-63.88-0.203-1.176-0.25-2.473-0.297-3.725-0.116-3.164-0.237-6.435-2.762-8.533-3.92-3.824-7.839-7.764-11.629-11.574l-0.811-0.816 0.748-0.302c1.716-0.167 3.457-0.402 5.141-0.63 1.174-0.159 2.389-0.324 3.594-0.465 2.754-0.099 4.981-0.315 7.01-0.679v-0.052c0.199 5e-3 0.398 0.014 0.598 0.014 11.66 1e-3 23.318-8.197 31.101-16.337 5.95-6.223 12.917-7.88 21.19-8.102 11.35-0.305 21.258-3.889 31.939-7.166 9.92-3.043 19.969-6.24 27.954-13.159 4.004-3.469 7.176-8.413 10.507-12.498 2.259-2.77 4.526-5.532 6.806-8.284 2.832-3.417 7.248-7.519 11.38-8.342 6.247-1.246 12.429-2.762 18.286-5.321 2.159-0.52 4.181-1.457 6.548-2.705 0 0 0.356 0.138 0.39 0.138 0.79-0.305 1.58-0.61 2.37-0.916 9.688-3.75 18.507-6.906 27.439-12.389 5.167-3.172 10.184-6.591 15.027-10.24 4.441-3.346 8.734-8.041 13.685-10.559 3.794-1.939 6.24-5.397 8.317-8.846 0.194-0.205 0.492-0.526 0.775-0.831 0.201-0.215 0.392-0.421 0.532-0.569 1.216-0.023 2.526-0.035 4.116-0.035 1.034 0 2.067 5e-3 3.102 9e-3 1.036 4e-3 2.071 9e-3 3.107 9e-3 2.054 0 4.759-0.016 7.467-0.14 0 0 0.174-8e-3 0.174-8e-3 2.498-0.092 5.033-0.255 7.487-0.415 1.848-0.12 3.759-0.245 5.647-0.338 5.197-0.37 10.237-1.946 15.111-3.472 2.833-0.887 5.764-1.804 8.695-2.474l0.069-0.016-0.085-0.126c0.895 1.332 17.71-5.53 19.317-6.236 5.024-2.209 9.845-4.888 14.366-7.999 3.061-2.106 8.773-4.389 10.651-7.675 1.071-1.418 2.205-2.824 3.303-4.185 2.859-3.546 5.494-6.785 8.823-9.905 2.054 0.25 4.127-0.107 6.166-0.463 15.427-2.696 30.96-3.042 46.239-7.147 7.406-1.99 14.661-4.526 21.693-7.587 3.687-1.604 7.31-3.351 10.866-5.227 1.233-0.65 10.109-4.62 10.109-5.782 2.697-1.662 5.485-3.381 8.328-4.85 2.075 0.471 3.956 0.891 5.947 1.248 5.383 1.331 10.949 2.264 16.332 3.166 1.909 0.32 3.883 0.651 5.82 0.994 1.931 0.4 4.002 0.587 6.521 0.587 19.839 0 37.958-5.142 56.006-12.843 0 0 0.074-0.032 0.071-0.034l0.501-0.239c1.497-0.713 3.044-1.451 4.529-2.303 1.318-0.547 2.674-1.079 3.985-1.593 3.26-1.278 6.631-2.599 9.762-4.31 1.429-0.75 2.772-1.805 4.071-2.827 2.451-1.928 4.987-3.921 8.191-3.921 0.343 0 0.694 0.024 1.052 0.069 1.795 0.054 3.652 0.109 5.491 0.109 4.13 0 7.277-0.285 10.202-0.944 2.56-0.209 5.129-0.649 7.33-1.063 1.671-0.203 3.397-0.298 5.067-0.392 13.519-0.759 28.764-2.072 41.157-7.956 1.616-0.581 3.151-1.376 4.956-2.389 5.783-3.245 11.223-6.215 16.052-10.936 2.021-1.416 2.272-3.648 3.825-5.286 1.641-1.731 4.38-2.49 6.629-2.977 0 0 0.064-0.016 0.098-0.025 23.696-6.441 43.131-17.249 59.205-35.91 1.389-1.613 2.826-3.281 4.285-4.872 11.64-12.679 17.546-28.514 18.782-44.93zm-1349.8 67.108s-1e-3 0.044-1e-3 0.045c0 0-4e-3 0.053 0 0.053-0.023 0.998-0.023 2.019-0.023 3.007 0 1.191 0 2.423-0.039 3.635-0.358 1.769-0.027 3.644 0.932 5.281l0.56 1.438c-1.116 0.043-2.114 0.392-3.045 1.066-2.792-2.227-5.56-4.597-8.237-6.89-6.599-5.652-13.423-11.497-21.216-15.723-3.242-1.702-6.431-3.607-9.516-5.45-2.488-1.486-5.061-3.023-7.646-4.444-0.708-0.468-1.275-0.819-1.783-1.105-3.364-3.087-7.464-5.116-11.428-7.078-14.79-7.32-28.23-16.947-43.127-24.162-7.633-3.697-15.526-7.52-22.788-12.184l-0.126-0.453-0.457-0.188c-0.314-0.132-0.777-0.332-1.234-0.527-0.411-0.177-0.813-0.349-1.101-0.471-1.06-0.568-2.16-1.108-3.224-1.63-2.728-1.338-5.548-2.722-7.932-4.698 0.267-0.21 0.643-0.511 1.018-0.812 0.386-0.31 0.768-0.616 1.031-0.822 1.245-0.255 2.553-0.396 3.819-0.532 0.279-0.029 0.559-0.06 0.847-0.092 3.515-0.281 6.339-0.798 8.886-1.628l0.625-0.144c4.9-0.013 8.905-0.298 12.611-0.897 2.022-0.269 4.082-0.683 6.075-1.085l0.32-0.064 0.616-0.071c4.17 0 8.166-0.309 11.876-0.919l0.875-0.141c0.287 0.427 0.579 0.861 0.875 1.297 0.289 0.429 0.58 0.859 0.877 1.302 0 0 0.576 0.869 0.592 0.894 0 0 0.052 0.079 0.061 0.054 1.34 1.326 3.188 1.546 4.821 1.642 0.282 0.026 0.699 0.06 1.116 0.094 0.406 0.033 0.811 0.065 1.092 0.092 0.186 0.282 0.485 0.727 0.76 1.138 0.178 0.264 0.345 0.514 0.469 0.7 1.053 2.026 2.753 3.519 4.398 4.963 1.251 1.099 2.543 2.234 3.551 3.602 0.665 0.795 1.301 1.665 1.917 2.505 1.902 2.599 3.869 5.286 7.077 6.433l0.061 0.031c1.515 0.774 3.082 1.573 4.594 2.437 1.32 1.168 2.547 2.488 3.734 3.764 1.903 2.046 3.871 4.161 6.292 5.728l0.141 0.092-0.016-0.034c0.982 0.508 2.036 0.906 3.06 1.283 0.591 0.219 1.203 0.446 1.799 0.693 1.546 1.288 3.157 2.501 4.669 3.62l0.09 0.077c5.283 4.486 10.601 9.421 12.533 16.068 0 0 0.014 0.048 0.015 0.047l0.223 0.73 0.037-1e-3c0.748-0.019 2.214-0.079 3.002-0.112l0.068-3e-3c4.332 1.186 7.619 4.264 10.797 7.242 1.288 1.206 2.619 2.453 3.997 3.551 1.819 1.522 3.948 2.634 6.007 3.708 1.424 0.743 2.895 1.513 4.255 2.411-0.016 0.214-0.041 0.517-0.066 0.825-0.023 0.304-0.047 0.6-0.066 0.812zm267.58-66.26c1.835 0.02 3.733 0.043 5.6 0.137 1.975 0.26 3.882 0.629 5.901 1.021l0.176 0.034c-0.32 0.302-0.783 0.737-1.216 1.146l-0.846 0.796c-4.414 1.658-8.619 3.909-12.686 6.087-2.484 1.329-5.051 2.704-7.64 3.93-0.264 0.083-0.692 0.214-1.085 0.334-0.244 0.074-0.476 0.145-0.644 0.197l-0.014 4e-3c-0.287 0.083-0.711 0.203-1.137 0.325-0.434 0.122-0.867 0.245-1.153 0.329h-1e-3c-2.8 0.438-5.429 1.833-8.274 4.386-2.421 1.624-5.249 3.478-8.196 4.947l-0.016 8e-3 -0.026 1e-3 -3e-3 0.013c-3.781 1.936-7.754 3.768-11.811 5.443-9.386 3.417-18.449 7.994-27.213 12.42-2.125 1.072-4.32 2.182-6.488 3.258-1.974 1.053-4.063 1.964-6.085 2.843-3.332 1.45-6.776 2.951-9.796 5.135l-0.016 0.011c-3.507 2.368-7.37 4.251-11.107 6.072l-1.033 0.504c-1.236 0.591-2.474 1.214-3.669 1.816-0.617 0.312-1.234 0.622-1.852 0.929l-0.033 0.016c-2.145 1.004-4.628 2.24-6.912 3.787l3e-3 -6e-3 -0.144 0.096c-0.435 0.292-0.869 0.587-1.303 0.881-2.844 1.929-5.787 3.924-9.059 5.175h-1e-3c-0.94 0.34-1.894 0.673-2.816 0.997-0.832 0.291-1.692 0.593-2.533 0.895 0.01-0.381 0.025-0.912 0.041-1.455 0.019-0.669 0.039-1.353 0.05-1.804 0.999-1.45 2.52-2.38 3.992-3.278 1.013-0.618 2.06-1.258 2.938-2.063 1.742-1.538 3.554-3.056 5.308-4.524 3.645-3.051 7.413-6.206 10.745-9.715 1.694-1.757 3.743-3.139 5.722-4.476 1.685-1.137 3.428-2.313 4.954-3.718v-1e-3c0.256-0.206 0.646-0.516 1.027-0.82 0.328-0.262 0.647-0.516 0.87-0.696h1e-3l0.017-0.015 0.08-0.064-4e-3 -1e-3c0.05-0.042 0.099-0.083 0.158-0.134 0.088-0.075 0.175-0.149 0.231-0.196 2.279-1.658 4.489-3.821 6.955-6.807 2.78-3.416 6.691-5.356 10.473-7.232 2.169-1.077 4.412-2.189 6.427-3.57h1e-3c1.846-1.054 3.795-1.992 5.678-2.898 0.902-0.434 1.835-0.883 2.746-1.34l0.011 0.011 0.028-0.03 0.053-0.027-0.016-0.016c2.651-2.838 4.259-6.374 4.529-9.964l2e-3 -0.025 0.182-0.719c1.445-2.059 3.234-4.043 5.801-6.435 4.533-2.095 8.331-3.071 11.952-3.071 0.31 0 0.623 7e-3 0.931 0.022 1.604 0.037 3.352 0.054 5.345 0.054 1.873 0 3.779-0.015 5.623-0.031 1.843-0.014 3.75-0.03 5.626-0.03 4.969 0 10.842 0.095 16.723 0.798 2.635 0.241 5.326 0.272 7.928 0.303z"/>
</svg>