<?xml version='1.0' encoding='utf-8'?>
<svg xmlns="http://www.w3.org/2000/svg" enable-background="new 0 0 2653.08 1496.882" version="1.1" viewBox="0 0 2653.08 1496.882">
	<linearGradient id="ck" x1="539.67" x2="717.17" y1="676.38" y2="676.38" gradientUnits="userSpaceOnUse">
		<stop stop-color="#FFF200" offset="0"/>
		<stop stop-color="#F5AE28" offset=".5"/>
		<stop stop-color="#6FBE45" offset="1"/>
	</linearGradient>
	<path d="m613.42 713.93c37.189-28.745 142.32-99.468 88.913-102.07-53.354-2.607-131.4 50.247-147.56 60.522-14.338 9.145-17.078 16.603-13.938 23.804 11.084 12.963 17.021 28.016 17.798 42.601 5.834 6.335 23.507-0.723 54.783-24.857z" fill="url(#ck)"/>
	<linearGradient id="bz" x1="562.97" x2="877.77" y1="721.66" y2="721.66" gradientUnits="userSpaceOnUse">
		<stop stop-color="#3BA2FF" offset="0"/>
		<stop stop-color="#2BC0F5" offset=".0494"/>
		<stop stop-color="#1EDBED" offset=".1046"/>
		<stop stop-color="#14EEE7" offset=".1611"/>
		<stop stop-color="#0EF9E3" offset=".2191"/>
		<stop stop-color="#0CFDE2" offset=".2809"/>
		<stop stop-color="#4EF33F" offset=".6685"/>
		<stop stop-color="#97ED3C" offset=".8876"/>
		<stop stop-color="#E8E93A" offset="1"/>
	</linearGradient>
	<path d="m617.02 850.45c20.828 6e-3 55.15-40.185 97.74-86.22 42.621-46.097 129.96-113.05 155.08-142.96 25.154-29.899-15.029-29.568-44.575-28.375-29.564 1.12-70.539 12.087-97.303 49.324-26.772 37.27-121.77 90.185-145.43 120.4-21.139 27.041-22.137 43.73-16.91 55.831 10.677 15.783 26.643 29.735 47.093 32.365 1.189-0.232 2.612-0.359 4.303-0.363z" fill="url(#bz)"/>
	<linearGradient id="bo" x1="520.29" x2="1131.4" y1="558.87" y2="558.87" gradientUnits="userSpaceOnUse">
		<stop stop-color="#3BA2FF" offset="0"/>
		<stop stop-color="#54AAEB" offset=".0645"/>
		<stop stop-color="#67B1DD" offset=".1334"/>
		<stop stop-color="#72B5D4" offset=".2044"/>
		<stop stop-color="#76B6D1" offset=".28"/>
		<stop stop-color="#9193A3" offset=".67"/>
		<stop stop-color="#A46A73" offset=".89"/>
		<stop stop-color="#B1334D" offset="1"/>
	</linearGradient>
	<path d="m635.38 538.4c-52.57 23.439-92.969 61.404-115.09 69.595 0.784 2.67 1.625 3.997 1.625 3.997 15.158 5.149 13.333 24.59 8.842 41.561-0.109 4.894 2.426 9.268 16.569 0.26 140.95-89.788 169.12-45.669 215.6-71.681 49.267-27.632 136.8-5.136 179.1-35.864 42.254-30.703 139.58-24.557 164.37-30.215 19.37-4.448 26.804-9.989 24.656-14.737-40.95-31.049-88.03-32.169-120.96-18.535-33.948 14.057-64.995-54.508-132.92 1.35-21.262-15.271-63.403-24.628-111.47-25.413-9.406 5.58-15.905 28.741-130.33 79.682z" fill="url(#bo)"/>
	<linearGradient id="bd" x1="526.51" x2="719.64" y1="515.3" y2="515.3" gradientUnits="userSpaceOnUse">
		<stop stop-color="#FFF33B" offset="0"/>
		<stop stop-color="#F6D955" offset=".0662"/>
		<stop stop-color="#EFC768" offset=".1346"/>
		<stop stop-color="#EBBC73" offset=".205"/>
		<stop stop-color="#EAB877" offset=".28"/>
		<stop stop-color="#DA9087" offset=".67"/>
		<stop stop-color="#CD6C8F" offset=".89"/>
		<stop stop-color="#BE2F92" offset="1"/>
	</linearGradient>
	<path d="m710.47 477.95c6.568-4.195 15.451-14.412 2.673-16.735-64.168 7.159-129.38 29.769-164.77 73.36-10.473 12.906-17.382 24.155-21.857 33.783 11.256 11.01 150.81-69.268 183.96-90.408z" fill="url(#bd)"/>
	<linearGradient id="as" x1="658.5" x2="1131.3" y1="728.58" y2="728.58" gradientUnits="userSpaceOnUse">
		<stop stop-color="#3452C6" offset="0"/>
		<stop stop-color="#A98A2E" offset="1"/>
	</linearGradient>
	<path d="m1129.9 562.33c5.83-9.275-7.897-20.349-28.687-17.744-24.092 0.819-106.47 7.216-136.7 25.231-30.215 17.949-52.581 42.339-83.912 72.383-31.355 30.073-67.424 60.599-151.96 135.89-75.761 67.496-74.501 97.582-66.55 104.63 19.448 7.03 58.662-25.146 102.54-71.946-66.599 77.755-59.707 144.01 9.153 69.871 68.864-74.154 235.37-240.76 350.3-313.96 2.323-1.482 4.246-2.934 5.82-4.353z" fill="url(#as)"/>
	<linearGradient id="ah" x1="304.58" x2="432.92" y1="652.3" y2="652.3" gradientUnits="userSpaceOnUse">
		<stop stop-color="#4052D2" offset="0"/>
		<stop stop-color="#00C1FF" offset=".5169"/>
		<stop stop-color="#7D00AA" offset=".95"/>
	</linearGradient>
	<path d="m430.5 607.09c-26.124-21.218-131.58 23.251-125.68 80.076 5.905 56.808 148.25-56.581 125.68-80.076z" fill="url(#ah)"/>
	<linearGradient id="w" x1="258.02" x2="336.46" y1="595.57" y2="595.57" gradientUnits="userSpaceOnUse">
		<stop stop-color="#5652C7" offset="0"/>
		<stop stop-color="#802109" offset=".5112"/>
		<stop stop-color="#47F141" offset="1"/>
	</linearGradient>
	<path d="m335.82 589.17c7.176-32.355-47.889-47.58-74.79 17.358-19.904 47.985 65.315 11.388 74.79-17.358z" fill="url(#w)"/>
	<linearGradient id="l" x1="393.71" x2="496.52" y1="688.69" y2="688.69" gradientUnits="userSpaceOnUse">
		<stop stop-color="#5652C7" offset="0"/>
		<stop stop-color="#802109" offset=".5112"/>
		<stop stop-color="#47F141" offset="1"/>
	</linearGradient>
	<path d="m468.11 701.79c55.481-55.57 22.835-75.171-38.867-33.306-46.684 29.72-41.117 46.379-18.892 57.471 22.201 11.121 27.315 6.299 57.759-24.165z" fill="url(#l)"/>
	<linearGradient id="a" x1="473.27" x2="538.77" y1="742.85" y2="742.85" gradientUnits="userSpaceOnUse">
		<stop stop-color="#9300AB" offset="0"/>
		<stop stop-color="#94EC2F" offset="1"/>
	</linearGradient>
	<path d="m513.48 705.68c-30.671-0.64-66.579 77.742-11.74 52.929-14.025 21.557 23.535 32.969 32.99 4.236 9.445-28.77 2.277-51.947-21.25-57.165z" fill="url(#a)"/>
	<linearGradient id="cx" x1="779.29" x2="870.55" y1="992.3" y2="992.3" gradientUnits="userSpaceOnUse">
		<stop stop-color="#9300AB" offset="0"/>
		<stop stop-color="#94EC2F" offset="1"/>
	</linearGradient>
	<path d="m847.34 1008c16.895-24.019 27.169-42.552 21.77-59.966-4.521-14.594-12.006-23.341-21.647-17.293-21.142 24.083-40.648 47.946-57.268 70.712-25.723 35.271-1.257 64.675 25.167 50.965 8.974-5.493 15.796-21.42 31.978-44.418z" fill="url(#cx)"/>
	<linearGradient id="ct" x1="1005.6" x2="1090.6" y1="1171.7" y2="1171.7" gradientUnits="userSpaceOnUse">
		<stop stop-color="#FFF33B" offset="0"/>
		<stop stop-color="#EBE054" offset=".0645"/>
		<stop stop-color="#DDD267" offset=".1334"/>
		<stop stop-color="#D4CA72" offset=".2044"/>
		<stop stop-color="#D1C776" offset=".28"/>
		<stop stop-color="#9FA391" offset=".67"/>
		<stop stop-color="#6A7FA4" offset=".89"/>
		<stop stop-color="#3367B1" offset="1"/>
	</linearGradient>
	<path d="m1087.9 1153.8c0.135-4.724 0.281-10.585 0.426-17.281-3.656-13.127-20.846-19.095-36.762-30.853-16.012-11.846-26.196-19.308-30.909-10.803-4.934 18.562-8.771 37.277-10.303 54.114-5.373 58.92-8.05 67.571 2.311 79.922 0.463 0.55 0.867 1.077 1.243 1.595 18.634 18.758 49.862 25.231 71.065 20.022 11.423-8.427 1.855-58.677 2.929-96.716z" fill="url(#ct)"/>
	<linearGradient id="cs" x1="1215.6" x2="1293.9" y1="1228.4" y2="1228.4" gradientUnits="userSpaceOnUse">
		<stop stop-color="#66C7FF" offset="0"/>
		<stop stop-color="#63BEF9" offset=".0296"/>
		<stop stop-color="#5EABEC" offset=".1097"/>
		<stop stop-color="#5AA0E4" offset=".1921"/>
		<stop stop-color="#599CE1" offset=".28"/>
		<stop stop-color="#7524B3" offset=".67"/>
		<stop stop-color="#7E2161" offset=".89"/>
		<stop stop-color="#923B2E" offset="1"/>
	</linearGradient>
	<path d="m1293.6 1219.7c2.419-8.444-11.636-8.438-30.269-8.547-19.87-0.123-47.385-13.13-47.724 0.208 4.648 20.946 10.488 36.413 17.512 38.605 1.203 0.372 2.318 0.802 3.357 1.274 22.489 2.262 47.057-13.504 57.124-31.54z" fill="url(#cs)"/>
	<linearGradient id="cr" x1="1108.8" x2="1196.4" y1="1211.8" y2="1211.8" gradientUnits="userSpaceOnUse">
		<stop stop-color="#F9D837" offset="0"/>
		<stop stop-color="#552F7F" offset=".5337"/>
		<stop stop-color="#F26522" offset="1"/>
	</linearGradient>
	<path d="m1194.2 1257.5c4.683-12.229 0.711-32.015-0.878-43.336-0.497-3.481-1.323-9.115-2.286-16.459-5.354-12.575-25.048-17.156-42.349-25.769-17.447-8.714-36.574-24.039-39.817-16.32 0.214 47.917 4.54 82.498 9.071 88.893 1.297 1.812 2.241 3.695 2.789 5.523 21.854 25.543 57.356 25.365 73.47 7.468z" fill="url(#cr)"/>
	<linearGradient id="cq" x1="900.66" x2="1044.4" y1="877.09" y2="877.09" gradientUnits="userSpaceOnUse">
		<stop stop-color="#FFF200" offset=".05"/>
		<stop stop-color="#0E58A8" offset=".5337"/>
		<stop stop-color="#A93E89" offset="1"/>
	</linearGradient>
	<path d="m900.67 945.25c-0.736 19.374 36.456 51.086 46.184 46.074 5.483-14.605 11.443-30.238 17.841-46.824 29.042-75.292 88.938-143.7 78.49-166.06-9.115-19.501-23.144-19.143-35.205-10.283-7.617 7.033-15.39 14.288-23.269 21.73-22.815 27.317-65.157 92.733-77.794 137.18-1.781 6.254-3.891 12.31-6.247 18.178z" fill="url(#cq)"/>
	<linearGradient id="cp" x1="916.81" x2="1003.5" y1="1127" y2="1127" gradientUnits="userSpaceOnUse">
		<stop stop-color="#DAD521" offset="0"/>
		<stop stop-color="#75ED30" offset=".5225"/>
		<stop stop-color="#97F023" offset="1"/>
	</linearGradient>
	<path d="m990.9 1146.1c2.371-13.599 5.486-37.744 12.647-67.786-1.212-12.197-16.583-17.68-26.084-24.605-9.514-6.93-25.139-22.17-28.326-11.292-0.109 0.371-0.236 0.709-0.374 1.026-26.036 82.716-35.082 120.73-31.011 138.77 13.365 27.001 40.004 38.512 59.681 30.755 12.799-9.101 8.356-37.473 13.467-66.871z" fill="url(#cp)"/>
	<linearGradient id="co" x1="1029.4" x2="1089.4" y1="1028.7" y2="1028.7" gradientUnits="userSpaceOnUse">
		<stop stop-color="#A02632" offset="0"/>
		<stop stop-color="#1FF246" offset="1"/>
	</linearGradient>
	<path d="m1059.4 990.21c-5.663 9.967-18.697 40.075-30.012 74.994 2.588 13.913 51.808 47.094 59.462 40.508 0.77-51.497 1.009-120.38-1.69-143.26-3.779-31.703-17.651 9.96-27.76 27.755z" fill="url(#co)"/>
	<linearGradient id="cn" x1="961.51" x2="1186" y1="845.1" y2="845.1" gradientUnits="userSpaceOnUse">
		<stop stop-color="#0080C8" offset="0"/>
		<stop stop-color="#833594" offset=".4944"/>
		<stop stop-color="#F2981F" offset="1"/>
	</linearGradient>
	<path d="m1057.9 740.06c-1.954 8.811 12.063 42.784-6.837 72.504-17.676 27.751-55.678 92.639-89.436 191.32-2.443 17.537 44.183 47.141 51.852 38.51 10.939-34.708 27.448-73.803 53.117-112.28 37.083-55.588 57.12-76.776 79.444-142.73 22.241-65.672 51.588-135.88 35.22-140.23-16.012-3.512-33.727 3.328-54.495 18.744-11.289 8.384-30.581 24.113-54.733 44.978-12.5 14.009-12.675 22.611-14.132 29.178z" fill="url(#cn)"/>
	<linearGradient id="cm" x1="1155" x2="1291.4" y1="939.74" y2="939.74" gradientUnits="userSpaceOnUse">
		<stop stop-color="#3948CE" offset=".05"/>
		<stop stop-color="#7F440D" offset=".5337"/>
		<stop stop-color="#DAD521" offset="1"/>
	</linearGradient>
	<path d="m1197.8 700.15c-15.652 42.783-53.035 148.62-40.095 194.66 12.924 46.04 42.369 163.58 45.184 213.53 1.255 22.595 4.013 52.616 8.261 79.227 7.24 13.569 62.207 23.315 80.313 9.334-2.219-11.422-3.949-22.911-4.92-33.737-4.735-53.158-62.044-165.92-67.998-274.58-4.934-90.517 15.907-112.14 23.364-159.27-1.158-4.32-2.301-7.974-3.426-10.879-6.62-16.126-13.225-29.343-19.963-39.864-10.527-9.955-16.041 8.825-20.72 21.579z" fill="url(#cm)"/>
	<linearGradient id="cl" x1="1104.5" x2="1187.6" y1="1035.8" y2="1035.8" gradientUnits="userSpaceOnUse">
		<stop stop-color="#00AB4E" offset=".05"/>
		<stop stop-color="#BD268F" offset=".5"/>
		<stop stop-color="#F26922" offset="1"/>
	</linearGradient>
	<path d="m1187.6 1168.3c-1.643-16.711-3.122-36.579-3.69-57.974-1.334-49.632-31.601-170.46-40.763-198.69-9.162-28.232-32.816 1.966-37.549 16.322-4.737 14.373 7.393 112.65 4.161 182.88-0.258 5.616-0.46 11.135-0.612 16.543 4.483 18.439 74.087 55.51 78.453 40.922z" fill="url(#cl)"/>
	<linearGradient id="cj" x1="828.55" x2="935.61" y1="1061.7" y2="1061.7" gradientUnits="userSpaceOnUse">
		<stop stop-color="#00AD8E" offset=".0056"/>
		<stop stop-color="#DA2128" offset=".5"/>
		<stop stop-color="#F26922" offset="1"/>
	</linearGradient>
	<path d="m883.78 1142.6c9.611-4.422 19.123-15.968 24.73-38.594 4.385-17.611 13.723-45.627 27.067-82.221 0.869-11.851-15.432-15.934-22.355-22.378-7.056-6.482-22.609-23.922-30.589-18.555-14.372 23.838-30.348 43.684-39.506 60.073-11.418 20.4-14.205 26.956-14.576 31.886 3.329 39.912 27.383 77.544 55.229 69.789z" fill="url(#cj)"/>
	<linearGradient id="ci" x1="445.45" x2="504.54" y1="497.23" y2="497.23" gradientUnits="userSpaceOnUse">
		<stop stop-color="#0080C8" offset="0"/>
		<stop stop-color="#833594" offset=".4944"/>
		<stop stop-color="#F2981F" offset="1"/>
	</linearGradient>
	<path d="m481.24 510.39c38.184-19.263 28.071-43.127-20.408-26.113-26.755 9.49-17.78 45.393 20.408 26.113z" fill="url(#ci)"/>
	<linearGradient id="ch" x1="456.51" x2="507.03" y1="569.65" y2="569.65" gradientUnits="userSpaceOnUse">
		<stop stop-color="#F68B1F" offset="0"/>
		<stop stop-color="#0080C8" offset=".4888"/>
		<stop stop-color="#F26122" offset=".9944"/>
	</linearGradient>
	<path d="m484.71 585.18c32.331-34.47 25.117-43.782 6.173-41.804-49.308 13.766-40.268 78.173-6.173 41.804z" fill="url(#ch)"/>
	<linearGradient id="cg" x1="879.08" x2="926.97" y1="886.89" y2="886.89" gradientUnits="userSpaceOnUse">
		<stop stop-color="#DAD521" offset="0"/>
		<stop stop-color="#7C00A8" offset="1"/>
	</linearGradient>
	<path d="m899.23 906.1c5.876-19.509 21.944-39.873 26.44-49.669 4.489-9.763-2.86-4.49-18.843 12.002-15.991 16.525-31.913 29.175-26.758 44.193 5.136 15.031 12.707 12.097 19.161-6.526z" fill="url(#cg)"/>
	<linearGradient id="cf" x1="341.24" x2="398.94" y1="486.91" y2="486.91" gradientUnits="userSpaceOnUse">
		<stop stop-color="#FFF33B" offset="0"/>
		<stop stop-color="#FEE72E" offset=".0401"/>
		<stop stop-color="#FED51B" offset=".1171"/>
		<stop stop-color="#FDCA10" offset=".1964"/>
		<stop stop-color="#FDC70C" offset=".2809"/>
		<stop stop-color="#F3903F" offset=".6685"/>
		<stop stop-color="#ED683C" offset=".8876"/>
		<stop stop-color="#E93E3A" offset="1"/>
	</linearGradient>
	<path d="m370.72 501.28c33.945-14.04 39.815-40.505 3.564-30.04-49.182 14.207-37.532 44.109-3.564 30.04z" fill="url(#cf)"/>
	<linearGradient id="ce" x1="229.91" x2="287.62" y1="530.07" y2="530.07" gradientUnits="userSpaceOnUse">
		<stop stop-color="#00AB4E" offset=".05"/>
		<stop stop-color="#BD268F" offset=".5"/>
		<stop stop-color="#F26922" offset="1"/>
	</linearGradient>
	<path d="m262.95 514.41c-49.195 14.187-37.549 44.106-3.564 30.04 33.952-14.073 39.818-40.522 3.564-30.04z" fill="url(#ce)"/>
	<linearGradient id="cd" x1="134.98" x2="190.08" y1="579.62" y2="579.62" gradientUnits="userSpaceOnUse">
		<stop stop-color="#0080C8" offset="0"/>
		<stop stop-color="#833594" offset=".4944"/>
		<stop stop-color="#F2981F" offset="1"/>
	</linearGradient>
	<path d="m165.05 563.74c-47.224 19.737-32.223 48.111-0.137 30.267 32.11-17.873 34.93-44.79 0.137-30.267z" fill="url(#cd)"/>
	<linearGradient id="cc" x1="422.03" x2="477.12" y1="833.26" y2="833.26" gradientUnits="userSpaceOnUse">
		<stop stop-color="#DAD521" offset="0"/>
		<stop stop-color="#75ED30" offset=".5225"/>
		<stop stop-color="#97F023" offset="1"/>
	</linearGradient>
	<path d="m426.68 819.04c-17.132 14.688 17.969 2.419 27.277 9.114s3.77 59.45 18.774 19.588c15-39.847-10.373-59.331-46.051-28.702z" fill="url(#cc)"/>
	<linearGradient id="cb" x1="518.37" x2="573.5" y1="899.33" y2="899.33" gradientUnits="userSpaceOnUse">
		<stop stop-color="#DAD521" offset="0"/>
		<stop stop-color="#75ED30" offset=".5225"/>
		<stop stop-color="#97F023" offset="1"/>
	</linearGradient>
	<path d="m523.02 885.11c-17.149 14.684 17.965 2.435 27.293 9.118 9.308 6.695 3.774 59.434 18.791 19.592 15-39.847-10.373-59.332-46.084-28.71z" fill="url(#cb)"/>
	<linearGradient id="ca" x1="615.79" x2="670.97" y1="960.09" y2="960.09" gradientUnits="userSpaceOnUse">
		<stop stop-color="#37FBF7" offset="0"/>
		<stop stop-color="#EDE71C" offset=".5056"/>
		<stop stop-color="#2DF520" offset="1"/>
	</linearGradient>
	<path d="m620.04 948.26c-16.122 15.876 18.079 1.221 27.823 7.273s7.767 59.046 20.064 18.273c12.261-40.763-14.375-58.514-47.887-25.546z" fill="url(#ca)"/>
	<linearGradient id="by" x1="325.61" x2="376.96" y1="783.11" y2="783.11" gradientUnits="userSpaceOnUse">
		<stop stop-color="#5652C7" offset="0"/>
		<stop stop-color="#802109" offset=".5112"/>
		<stop stop-color="#47F141" offset="1"/>
	</linearGradient>
	<path d="m329.29 773.74c-14.259 15.394 16.845 0.345 26.186 5.498 9.293 5.211 9.803 54.523 19.427 16.101 9.596-38.377-15.926-53.695-45.613-21.599z" fill="url(#by)"/>
	<linearGradient id="bx" x1="246.02" x2="293.34" y1="745.45" y2="745.45" gradientUnits="userSpaceOnUse">
		<stop stop-color="#3BA2FF" offset="0"/>
		<stop stop-color="#54AAEB" offset=".0645"/>
		<stop stop-color="#67B1DD" offset=".1334"/>
		<stop stop-color="#72B5D4" offset=".2044"/>
		<stop stop-color="#76B6D1" offset=".28"/>
		<stop stop-color="#9193A3" offset=".67"/>
		<stop stop-color="#A46A73" offset=".89"/>
		<stop stop-color="#B1334D" offset="1"/>
	</linearGradient>
	<path d="m248.86 740.22c-11.591 15.47 15.435-1.293 24.444 2.564 9.041 3.864 14.229 48.928 19.353 12.865 5.139-36.059-19.7-47.628-43.797-15.429z" fill="url(#bx)"/>
	<linearGradient id="bw" x1="171.67" x2="215.22" y1="699.08" y2="699.08" gradientUnits="userSpaceOnUse">
		<stop stop-color="#3BA2FF" offset="0"/>
		<stop stop-color="#54AAEB" offset=".0645"/>
		<stop stop-color="#67B1DD" offset=".1334"/>
		<stop stop-color="#72B5D4" offset=".2044"/>
		<stop stop-color="#76B6D1" offset=".28"/>
		<stop stop-color="#9193A3" offset=".67"/>
		<stop stop-color="#A46A73" offset=".89"/>
		<stop stop-color="#B1334D" offset="1"/>
	</linearGradient>
	<path d="m174.28 694.27c-10.645 14.233 14.24-1.18 22.546 2.35 8.259 3.588 13.061 45.037 17.772 11.843 4.735-33.223-18.116-43.818-40.318-14.193z" fill="url(#bw)"/>
	<linearGradient id="bv" x1="82.218" x2="112.73" y1="648.09" y2="648.09" gradientUnits="userSpaceOnUse">
		<stop stop-color="#7C00AB" offset=".05"/>
		<stop stop-color="#BD9C26" offset=".5"/>
		<stop stop-color="#63F222" offset="1"/>
	</linearGradient>
	<path d="m111.65 647.42c-2.933-14.56 1.804-28.933-10.798-20.935-17.31 8.503-27.56 33.996-7.978 42.953 19.625 9.001 21.733-7.488 18.776-22.018z" fill="url(#bv)"/>
	<linearGradient id="bu" x1="746.15" x2="781.59" y1="1110.8" y2="1110.8" gradientUnits="userSpaceOnUse">
		<stop stop-color="#A90093" offset="0"/>
		<stop stop-color="#B90046" offset=".5"/>
		<stop stop-color="#7D00AA" offset="1"/>
	</linearGradient>
	<path d="m749.83 1097.7c-12.717 7.353 11.181 3.685 16.349 9.1 5.155 5.395-4.686 38.433 9.654 14.759 14.347-23.706 0.475-39.16-26.003-23.859z" fill="url(#bu)"/>
	<linearGradient id="bt" x1="827.14" x2="863.05" y1="1212.4" y2="1212.4" gradientUnits="userSpaceOnUse">
		<stop stop-color="#A90093" offset="0"/>
		<stop stop-color="#954937" offset="0"/>
		<stop stop-color="#A58735" offset=".5056"/>
		<stop stop-color="#DAD521" offset="1"/>
	</linearGradient>
	<path d="m829.65 1206.3c-9.795 10.945 11.805 0.019 18.357 3.538 6.566 3.539 7.551 37.979 13.787 11.028 6.247-27.001-11.767-37.366-32.144-14.566z" fill="url(#bt)"/>
	<linearGradient id="bs" x1="940.13" x2="976.75" y1="1279.1" y2="1279.1" gradientUnits="userSpaceOnUse">
		<stop stop-color="#007DFF" offset="0"/>
		<stop stop-color="#28F584" offset=".5"/>
		<stop stop-color="#5845BE" offset="1"/>
	</linearGradient>
	<path d="m976.42 1285c-2.486-27.595-22.807-31.827-35.078-3.821-5.892 13.446 11.205-3.643 18.526-2.346 7.354 1.303 19.014 33.722 16.552 6.167z" fill="url(#bs)"/>
	<linearGradient id="br" x1="1045.3" x2="1083" y1="1305.8" y2="1305.8" gradientUnits="userSpaceOnUse">
		<stop stop-color="#37E9F9" offset="0"/>
		<stop stop-color="#7F440D" offset=".5337"/>
		<stop stop-color="#6CF222" offset="1"/>
	</linearGradient>
	<path d="m1080 1308.3c-10.942-25.408-31.587-23.135-34.52 7.32-1.392 14.581 9.531-6.958 16.904-7.991 7.367-1.086 28.554 26.095 17.616 0.671z" fill="url(#br)"/>
	<linearGradient id="bq" x1="1154.5" x2="1192.5" y1="1322.9" y2="1322.9" gradientUnits="userSpaceOnUse">
		<stop stop-color="#DAD521" offset="0"/>
		<stop stop-color="#7C00A8" offset="1"/>
	</linearGradient>
	<path d="m1169.4 1322.3c6.692-3.318 35.268 15.93 16.98-4.841-18.328-20.746-37.233-12.114-30.524 17.708 3.228 14.316 6.875-9.578 13.544-12.867z" fill="url(#bq)"/>
	<linearGradient id="bp" x1="1247.3" x2="1285.2" y1="1294.1" y2="1294.1" gradientUnits="userSpaceOnUse">
		<stop stop-color="#3BA2FF" offset="0"/>
		<stop stop-color="#46B0E9" offset=".0266"/>
		<stop stop-color="#58C5C7" offset=".0748"/>
		<stop stop-color="#66D5AC" offset=".124"/>
		<stop stop-color="#6FE199" offset=".174"/>
		<stop stop-color="#75E88E" offset=".2253"/>
		<stop stop-color="#77EA8A" offset=".28"/>
		<stop stop-color="#CBDA87" offset=".67"/>
		<stop stop-color="#CDC16C" offset=".89"/>
		<stop stop-color="#BE9F2F" offset="1"/>
	</linearGradient>
	<path d="m1279.2 1288.7c-18.324-20.762-37.233-12.114-30.524 17.709 3.212 14.312 6.876-9.578 13.544-12.868 6.709-3.314 35.301 15.938 16.98-4.841z" fill="url(#bp)"/>
	<linearGradient id="bn" x1="171.54" x2="202.48" y1="753" y2="753" gradientUnits="userSpaceOnUse">
		<stop stop-color="#A6CE39" offset=".05"/>
		<stop stop-color="#552F7F" offset=".5337"/>
		<stop stop-color="#DA2128" offset="1"/>
	</linearGradient>
	<path d="m194.64 745.97c-9.001-8.159-28.724-2.515-21.57-0.154 17.654 3.916 19.592 8.993 25.66 16.484 6.03 7.502 4.89-8.158-4.09-16.33z" fill="url(#bn)"/>
	<linearGradient id="bm" x1="244.05" x2="275" y1="801.46" y2="801.46" gradientUnits="userSpaceOnUse">
		<stop stop-color="#007DFF" offset="0"/>
		<stop stop-color="#28F584" offset=".5"/>
		<stop stop-color="#5845BE" offset="1"/>
	</linearGradient>
	<path d="m267.15 794.44c-8.981-8.172-28.764-2.489-21.553-0.15 17.654 3.916 19.592 8.993 25.627 16.477 6.047 7.504 4.907-8.155-4.074-16.327z" fill="url(#bm)"/>
	<linearGradient id="bl" x1="323.79" x2="355.82" y1="847.63" y2="847.63" gradientUnits="userSpaceOnUse">
		<stop stop-color="#A02632" offset="0"/>
		<stop stop-color="#1FF246" offset="1"/>
	</linearGradient>
	<path d="m346.91 840.43c-9.482-7.543-28.843-0.579-21.504 1.256 17.827 2.749 20.14 7.686 26.674 14.781 6.506 7.072 4.337-8.454-5.17-16.037z" fill="url(#bl)"/>
	<linearGradient id="bk" x1="402.09" x2="434.11" y1="887.36" y2="887.36" gradientUnits="userSpaceOnUse">
		<stop stop-color="#37FBF7" offset="0"/>
		<stop stop-color="#EDE71C" offset=".5056"/>
		<stop stop-color="#2DF520" offset="1"/>
	</linearGradient>
	<path d="m425.22 880.19c-9.524-7.586-28.825-0.661-21.504 1.256 17.867 2.723 20.147 7.653 26.665 14.745 6.498 7.105 4.361-8.483-5.161-16.001z" fill="url(#bk)"/>
	<linearGradient id="bj" x1="491.44" x2="521.44" y1="949.07" y2="949.07" gradientUnits="userSpaceOnUse">
		<stop stop-color="#B5C634" offset="0"/>
		<stop stop-color="#A92E91" offset="1"/>
	</linearGradient>
	<path d="m514.44 942.27c-8.562-8.664-28.582-4.084-21.519-1.313 17.397 4.84 19.113 9.989 24.741 17.83 5.62 7.805 5.314-7.893-3.222-16.517z" fill="url(#bj)"/>
	<linearGradient id="bi" x1="583.01" x2="612.99" y1="1011.7" y2="1011.7" gradientUnits="userSpaceOnUse">
		<stop stop-color="#7F440D" offset="0"/>
		<stop stop-color="#00CFFF" offset="1"/>
	</linearGradient>
	<path d="m606 1004.9c-8.533-8.641-28.553-4.061-21.519-1.313 17.394 4.856 19.089 10.018 24.709 17.823 5.644 7.845 5.343-7.87-3.19-16.51z" fill="url(#bi)"/>
	<linearGradient id="bh" x1="732.08" x2="755.38" y1="1152.6" y2="1152.6" gradientUnits="userSpaceOnUse">
		<stop stop-color="#3BA2FF" offset="0"/>
		<stop stop-color="#54AAEB" offset=".0645"/>
		<stop stop-color="#67B1DD" offset=".1334"/>
		<stop stop-color="#72B5D4" offset=".2044"/>
		<stop stop-color="#76B6D1" offset=".28"/>
		<stop stop-color="#9193A3" offset=".67"/>
		<stop stop-color="#A46A73" offset=".89"/>
		<stop stop-color="#B1334D" offset="1"/>
	</linearGradient>
	<path d="m733.1 1139.9c14.882 10.204 14.801 15.694 17.611 24.908 2.798 9.193 7.581-5.772 2.31-16.702-5.29-10.917-25.691-13.084-19.921-8.206z" fill="url(#bh)"/>
	<linearGradient id="bg" x1="668.2" x2="674.47" y1="1057.8" y2="1057.8" gradientUnits="userSpaceOnUse">
		<stop stop-color="#7F440D" offset="0"/>
		<stop stop-color="#00CFFF" offset="1"/>
	</linearGradient>
	<path d="m670.52 1047.4c-3.263 7.728-3.087 20.902 0.605 21.721 3.642 0.807 5.459-28.106-0.605-21.721z" fill="url(#bg)"/>
	<linearGradient id="bf" x1="802.56" x2="827.59" y1="1267.5" y2="1267.5" gradientUnits="userSpaceOnUse">
		<stop stop-color="#F68B1F" offset="0"/>
		<stop stop-color="#0080C8" offset=".4888"/>
		<stop stop-color="#F26122" offset=".9944"/>
	</linearGradient>
	<path d="m803.7 1255.8c15.696 8.938 16.041 14.368 19.609 23.354 3.531 8.994 7.085-6.33 0.934-16.783-6.173-10.511-26.698-10.949-20.543-6.571z" fill="url(#bf)"/>
	<linearGradient id="be" x1="933.34" x2="965.05" y1="1347.3" y2="1347.3" gradientUnits="userSpaceOnUse">
		<stop stop-color="#7C00AB" offset=".05"/>
		<stop stop-color="#BD9C26" offset=".5"/>
		<stop stop-color="#63F222" offset="1"/>
	</linearGradient>
	<path d="m956.5 1340.2c-9.338-7.803-28.858-1.288-21.566 0.76 17.829 3.128 19.98 8.098 26.363 15.332 6.367 7.23 4.536-8.342-4.797-16.092z" fill="url(#be)"/>
	<linearGradient id="bc" x1="1046.8" x2="1081.9" y1="1392" y2="1392" gradientUnits="userSpaceOnUse">
		<stop stop-color="#3BA2FF" offset="0"/>
		<stop stop-color="#2BC0F5" offset=".0494"/>
		<stop stop-color="#1EDBED" offset=".1046"/>
		<stop stop-color="#14EEE7" offset=".1611"/>
		<stop stop-color="#0EF9E3" offset=".2191"/>
		<stop stop-color="#0CFDE2" offset=".2809"/>
		<stop stop-color="#4EF33F" offset=".6685"/>
		<stop stop-color="#97ED3C" offset=".8876"/>
		<stop stop-color="#E8E93A" offset="1"/>
	</linearGradient>
	<path d="m1069.1 1385c-11.143-4.864-28.013 6.853-20.438 6.777 17.945-1.976 21.412 2.184 29.566 7.332 8.149 5.164 2.006-9.281-9.128-14.109z" fill="url(#bc)"/>
	<linearGradient id="bb" x1="1150.5" x2="1186" y1="1393" y2="1393" gradientUnits="userSpaceOnUse">
		<stop stop-color="#264BA0" offset="0"/>
		<stop stop-color="#F2981F" offset="1"/>
	</linearGradient>
	<path d="m1168.2 1385.3c-12.125 0.495-22.237 18.376-15.432 15.014 15.299-9.603 20.24-7.354 29.806-6.248 9.568 1.106-2.248-9.261-14.374-8.766z" fill="url(#bb)"/>
	<linearGradient id="ba" x1="1272.3" x2="1283.1" y1="1334.5" y2="1334.5" gradientUnits="userSpaceOnUse">
		<stop stop-color="#37FBF7" offset="0"/>
		<stop stop-color="#EDE71C" offset=".5056"/>
		<stop stop-color="#2DF520" offset="1"/>
	</linearGradient>
	<path d="m1274.4 1331.6c-6.455 4.731 3.605 11.61 7.27 5.486 3.865-6.872-0.828-10.237-7.27-5.486z" fill="url(#ba)"/>
	<linearGradient id="az" x1="87.512" x2="104.02" y1="707.26" y2="707.26" gradientUnits="userSpaceOnUse">
		<stop stop-color="#9300AB" offset="0"/>
		<stop stop-color="#94EC2F" offset="1"/>
	</linearGradient>
	<path d="m100.44 705.01c-9.336-6.65-17.658-3.899-9.797 2.492 8.301 11.085 19.098 4.235 9.797-2.492z" fill="url(#az)"/>
	<path d="m2541.2 575.13c-174.44-138.03-543.74-194.12-652.46-198.44-107.17-4.255-325.32-23.57-466.61 60.985-13.378-22.874-31.014-37.965-47.11-47.789 7.604-15.531 8.407-33.661 5.332-45.564-4.751-18.425-18.605-28.998-33.718-31.414 0.103-1.138 0.112-2.288 0.04-3.443 51.907-110.54 196.26-191.42 275.6-225.75-78.879 27.7-221.54 110-277.46 217.35-4.124-11.061-14.065-20.478-21.076-20.03-6.452 0.598-14.051 9.924-17.005 20.472-64.309-102.24-212.15-172.96-292.67-194.51 81.455 28.066 230.77 97.235 291.41 202.85-0.021 1.527 0.086 3.039 0.335 4.514-15.939 2.871-30.004 14.51-32.917 34.492-1.721 11.926 0.917 29.745 9.765 44.534-15.433 10.241-31.581 25.316-43.85 47.318-0.156 0.052-0.318 0.1-0.471 0.154-140.47-89.787-363.5-71.379-472.26-67.751-108.74 3.631-478.35 57.353-653.66 194.26-175.33 136.9 52.329 181.24 72.223 188.71 21.246 29.397 60.441 47.335 72.84 47.004 28.774 37.213 63.405 47.94 82.322 46.008 22.225 38.876 77.083 41.765 77.083 41.765 16.004 25.171 70.234 58.751 88.503 59.739 9.47 26.768 63.058 63.322 90.792 63.311 9.479 26.805 48.69 44.746 66.97 45.684 4e-3 27.767 63.717 88.136 77.762 94.35 2.952 56.153 34.991 106.43 70.249 114.25 29.429 62.043 111.73 80.296 135.89 82.558 45.065 47.04 83.936 52.546 115.94 47.336 34.324 26.084 90.784 7.776 107.44 2.21 57.8 7.436 122.34-26.272 142.24-131.14 4.321 9.621 8.278 15.362 11.059 15.016 2.967 0.43 7.419-6.085 12.303-16.865 18.788 106.54 83.537 141.11 141.74 134.02 16.596 5.661 72.993 24.349 107.47-1.555 31.969 5.421 70.87 0.157 116.23-46.572 24.176-2.126 106.62-19.852 136.43-81.7 35.336-7.586 67.673-57.686 70.968-113.83 14.088-6.085 78.186-66.044 78.41-93.83 18.248-0.859 57.56-18.529 67.255-45.246 27.727 0.177 81.549-36.034 91.188-62.73 18.281-0.851 72.74-34.115 88.878-59.145 0 0 54.896-2.56 77.343-41.288 18.938 2.083 53.641-8.467 82.613-45.49 12.456 0.422 51.709-17.296 73.15-46.521 19.951-7.384 247.91-50.262 73.469-188.3zm-1258.5-208.34c-6.096-6.43-4.791-18.604 4.2-21.034 5.951-1.607-0.14 25.394-4.2 21.034zm1108.3 154.44c49.09 14.537 37.213 44.335 3.352 30.059-33.829-14.268-39.524-40.75-3.352-30.059zm1.314 92.095c19.619 48.144-65.357 10.998-74.636-17.793-6.932-32.386 48.168-47.277 74.636 17.793zm-112.38-135.96c49.073 14.534 37.262 44.346 3.401 30.07-33.862-14.276-39.552-40.774-3.401-30.07zm-57.109 135.48c26.324-21.05 131.49 24.087 125.18 80.854-6.242 56.782-147.87-57.516-125.18-80.854zm19.448 119c-22.256 10.935-27.351 6.121-57.659-24.563-55.133-55.901-22.333-75.256 39.108-33.053 46.508 30.059 40.86 46.675 18.551 57.616zm-73.47-141.25c-32.107-34.681-24.852-43.951-5.938-41.839 49.232 14.053 39.763 78.399 5.938 41.839zm-56.94 110.72c-11.094 12.864-17.104 27.822-17.99 42.35-5.834 6.398-23.478-0.728-54.642-25.155-37.039-28.975-141.7-100.39-88.284-102.64 53.399-2.255 131.08 51.107 147.21 61.501 14.295 9.248 16.944 16.743 13.707 23.943zm81.437-211.46c26.725 9.663 17.485 45.502-20.566 25.977-38.071-19.514-27.787-43.295 20.566-25.977zm-87.88 49.675c10.409 12.985 17.251 24.288 21.66 33.951-11.351 10.925-150.36-70.242-183.38-91.579-6.601-4.23-15.489-14.6-2.342-16.761 64.057 7.596 129.01 30.62 164.06 74.389zm-461.4-54.757c33.878 14.279 65.376-54.081 132.9 2.21 21.352-15.128 63.533-24.214 111.58-24.701 9.409 5.53 15.399 28.695 129.86 80.577 52.412 23.723 92.556 61.921 114.62 70.281-0.804 2.655-1.652 3.972-1.652 3.972-15.155 5.067-13.442 24.505-9.058 41.498 0.103 4.917-2.421 9.337-16.596 0.202-140.37-90.711-168.81-46.755-215.1-73.065-49.162-27.946-136.8-5.984-178.88-36.989-42.055-30.966-139.42-25.449-164.15-31.295-19.438-4.596-26.821-10.204-24.566-14.957 41.157-30.747 88.183-31.563 121.04-17.733zm177.8 590.95c-3.517 40.032-27.895 77.736-55.776 69.707-9.551-4.494-18.961-16.11-24.459-38.727-4.256-17.643-13.412-45.704-26.516-82.365-0.816-11.884 15.524-15.855 22.534-22.234 7.085-6.493 22.866-23.918 30.773-18.32 14.204 23.882 30.034 43.789 39.117 60.228 11.064 20.118 13.904 26.797 14.327 31.711zm-149.64 139.61c-12.913-9.082-8.221-37.511-13.192-67.025-2.282-13.629-5.237-37.839-12.216-67.981 1.401-12.106 16.7-17.441 26.197-24.318 9.574-6.845 25.325-21.977 28.421-11.1 0.098 0.343 0.209 0.663 0.332 0.961 25.451 82.731 34.298 120.85 30.187 138.9-13.477 26.905-40.092 38.302-59.729 30.561zm-107.98 36.684c-11.278-8.66-1.456-58.699-2.234-96.689-0.105-4.766-0.215-10.683-0.319-17.446 3.854-12.999 20.994-18.846 36.934-30.448 16.205-11.822 26.49-19.227 31.082-10.372 4.78 18.5 8.469 37.132 9.894 53.888 4.951 58.938 7.598 67.65-2.839 79.933-0.375 0.438-0.714 0.864-1.033 1.282-18.723 18.868-50.216 25.236-71.485 19.852zm-208.32-31.913c-2.553-8.577 11.56-8.474 30.283-8.453 19.833-0.02 47.355-12.771 47.708 0.393-4.79 20.96-10.734 36.428-17.774 38.575-1.167 0.355-2.254 0.764-3.268 1.215-22.467 2.172-46.927-13.673-56.949-31.73zm-119.45 31.182c-1.039-0.472-2.154-0.902-3.357-1.274-7.024-2.193-12.864-17.659-17.512-38.605 0.34-13.338 27.854-0.331 47.724-0.208 18.634 0.109 32.688 0.103 30.269 8.547-10.066 18.037-34.634 33.803-57.124 31.54zm-127.3-123.91c0.151-5.408 0.353-10.926 0.612-16.543 3.233-70.223-8.898-168.5-4.161-182.88 4.734-14.357 28.387-44.554 37.549-16.322s39.428 149.06 40.763 198.69c0.568 21.395 2.047 41.263 3.69 57.974-4.366 14.588-73.97-22.483-78.453-40.922zm-20.288-21.656c-7.653 6.586-56.873-26.595-59.462-40.508 11.315-34.918 24.349-65.027 30.012-74.994 10.109-17.795 23.981-59.458 27.76-27.755 2.699 22.872 2.46 91.76 1.69 143.26zm232.24-742.93c2.04-2.286 3.521 4.842 3.589 11.548 0.042 4.214-0.472 8.262-1.761 9.703-1.755 1.948-3.145-2.641-3.555-8.162-0.371-4.969 0.054-10.695 1.727-13.089zm-74.506 523.74c3.55 51.363 10.047 103.33 35.176 208.12-9.127-23.267-48.705-140.22-56.733-207.79-4.97-42.093 10.192-92.661 21.844-135.31 7.065-25.856 12.84-48.801 12.053-65.174 5.963 24.637 0.677 66.706-4.774 108.19-4.534 34.509-9.183 68.616-7.566 91.956zm1.946-432.54c9.711-2.649 2.658 32.797 3.843 65.251 1.198 32.473 31.647 110.72-0.552 87.395-32.178-23.337-28.986-145.61-3.291-152.65zm-10.092 264.44c1.125 2.904 2.268 6.559 3.426 10.879-7.457 47.133-28.298 68.751-23.364 159.27 5.954 108.67 63.262 221.43 67.998 274.58 0.971 10.826 2.701 22.315 4.92 33.737-18.106 13.981-73.074 4.236-80.313-9.334-4.248-26.612-7.007-56.632-8.261-79.227-2.815-49.943-32.259-167.49-45.184-213.53-12.941-46.043 24.443-151.88 40.095-194.66 4.679-12.753 10.192-31.534 20.721-21.579 6.737 10.521 13.343 23.738 19.962 39.864zm208.89 390.73c-1.439 22.644-4.424 52.757-8.877 79.399-7.8 13.493-63.024 22.735-80.584 8.324 2.367-11.168 4.259-22.396 5.402-33 5.775-53.047 65.235-164.66 73.246-273.19 7.273-98.569-17.628-115.85-21.723-173.11 6.538-15.472 13.049-28.21 19.667-38.389 10.538-9.746 15.919 9.003 20.493 21.807 15.4 42.871 52.077 148.92 38.86 194.93-13.218 45.939-43.378 163.3-46.484 213.23zm14.846 59.993c1.75-16.692 3.356-36.537 4.059-57.918 1.655-49.606 32.682-170.25 41.993-198.41 9.351-28.189 32.845 2.172 37.45 16.569 4.658 14.391-8.123 112.6-5.316 182.84 0.226 5.707 0.395 11.313 0.512 16.804-5.171 18.523-74.65 54.878-78.698 40.115zm158.88-101.98c-2.765 13.927-52.215 46.798-59.756 40.095-0.444-51.524-0.245-120.45 2.641-143.33 3.954-31.641 17.542 10.088 27.556 27.957 5.614 10.017 18.466 40.254 29.559 75.281zm131.17-158.34c-5.77-19.544-21.704-39.983-26.114-49.826-4.426-9.847 2.873-4.493 18.778 12.118 15.889 16.607 31.72 29.362 26.449 44.357-5.221 15.006-12.807 12.033-19.113-6.649zm-84.781-116.78c22.61 27.413 64.571 93.18 76.969 137.72 1.729 6.234 3.786 12.273 6.087 18.125 0.732 19.426-36.887 51.073-46.523 45.851-5.382-14.621-11.233-30.272-17.512-46.877-28.578-75.505-88.027-144.31-77.431-166.63 9.384-19.764 23.685-18.976 35.782-9.609 7.412 6.936 14.97 14.086 22.628 21.414zm-86.977-79.739c12.597 14.201 12.713 22.855 14.154 29.465 1.928 8.845-12.396 42.696 6.371 72.559 17.499 27.888 55.161 93.157 88.308 192.29 1.611 17.559-44.447 46.334-52.131 37.871-10.71-34.811-26.972-74.058-52.428-112.74-36.726-55.846-56.621-77.129-78.531-143.27-21.74-65.603-50.532-135.72-34.447-140.39 16.06-3.47 33.759 3.479 54.471 19.063 11.203 8.431 30.313 24.215 54.233 45.145zm-243.64-349.32c1.371 2.108 1.75 6.606 1.503 10.963-0.363 6.41-2.081 12.512-3.986 10.245-1.412-1.683-1.725-6.716-1.359-11.508 0.466-6.111 2.037-11.828 3.842-9.7zm-18.398-72.352c2.58 1.175-0.294 8.387-2.99 7.892-2.718-0.551-0.223-9.397 2.99-7.892zm-137.22 356.52c16.368 4.354-12.979 74.559-35.22 140.23-22.323 65.954-42.36 87.142-79.444 142.73-25.669 38.472-42.178 77.567-53.117 112.28-7.668 8.631-54.295-20.973-51.852-38.51 33.758-98.684 71.759-163.57 89.436-191.32 18.9-29.72 4.883-63.694 6.837-72.504 1.457-6.567 1.632-15.169 14.131-29.176 24.153-20.865 43.444-36.594 54.733-44.978 20.768-15.418 38.483-22.258 54.496-18.746zm-352.69 425.65c0.371-4.93 3.158-11.487 14.576-31.886 9.158-16.389 25.134-36.235 39.506-60.073 7.981-5.367 23.533 12.073 30.589 18.555 6.923 6.444 23.224 10.526 22.355 22.378-13.344 36.594-22.682 64.61-27.067 82.221-5.606 22.625-15.119 34.172-24.73 38.594-27.844 7.754-51.898-29.878-55.229-69.789zm179.44-304.66c12.062-8.86 26.091-9.218 35.205 10.283 10.448 22.355-49.448 90.768-78.49 166.06-6.398 16.586-12.358 32.22-17.841 46.824-9.728 5.012-46.92-26.701-46.184-46.074 2.356-5.867 4.466-11.924 6.247-18.179 12.637-44.452 54.978-109.87 77.794-137.18 7.878-7.441 15.652-14.696 23.269-21.729zm-101.16 100.28c15.983-16.492 23.333-21.765 18.843-12.002-4.497 9.796-20.564 30.16-26.44 49.669-6.454 18.623-14.025 21.557-19.161 6.526-5.155-15.018 10.767-27.667 26.758-44.193zm-29.649-384.31c67.922-55.857 98.969 12.707 132.92-1.35 32.927-13.634 80.007-12.514 120.96 18.535 2.147 4.748-5.287 10.289-24.656 14.737-24.786 5.657-122.11-0.488-164.37 30.215-42.294 30.728-129.83 8.232-179.1 35.864-46.481 26.013-74.653-18.107-215.6 71.681-14.143 9.008-16.678 4.635-16.569-0.26 4.491-16.971 6.315-36.411-8.842-41.561 0 0-0.841-1.327-1.625-3.997 22.117-8.191 62.517-46.156 115.09-69.595 114.42-50.941 120.92-74.102 130.33-79.682 48.062 0.785 90.203 10.141 111.46 25.413zm-318.54 254.66c-0.776-14.586-6.713-29.638-17.798-42.601-3.141-7.201-0.4-14.659 13.938-23.804 16.154-10.275 94.203-63.129 147.56-60.522 53.407 2.601-51.724 73.325-88.913 102.07-31.277 24.134-48.95 31.192-54.783 24.857zm-10.271-204.22c35.393-43.591 100.6-66.201 164.77-73.36 12.779 2.323 3.895 12.54-2.673 16.735-33.148 21.139-172.7 101.42-183.96 90.407 4.474-9.627 11.383-20.875 21.856-33.782zm-63.658 50.606c-34.094 36.369-43.134-28.038 6.173-41.804 18.944-1.978 26.157 7.334-6.173 41.804zm-23.875-100.9c48.479-17.014 58.593 6.85 20.408 26.113-38.188 19.28-47.163-16.623-20.408-26.113zm-86.554-13.034c36.25-10.465 30.38 16-3.564 30.04-33.968 14.069-45.618-15.833 3.564-30.04zm-273.43 155.24c12.602-7.998 7.865 6.375 10.798 20.935 2.957 14.53 0.849 31.019-18.775 22.018-19.584-8.957-9.333-34.45 7.977-42.953zm-10.206 81.019c-7.861-6.391 0.461-9.142 9.797-2.492 9.3 6.727-1.497 13.577-9.797 2.492zm74.267-113.5c-32.086 17.844-47.086-10.53 0.137-30.267 34.793-14.523 31.973 12.394-0.137 30.267zm33.818 168.3c-6.068-7.491-8.006-12.569-25.66-16.484-7.154-2.361 12.569-8.006 21.57 0.154 8.981 8.171 10.121 23.831 4.09 16.33zm-1.906-65.681c-8.306-3.529-33.191 11.884-22.546-2.35 22.201-29.625 45.053-19.031 40.318 14.193-4.711 33.194-9.513-8.256-17.772-11.843zm62.568-152.17c-33.985 14.066-45.63-15.853 3.564-30.04 36.254-10.482 30.388 15.967-3.564 30.04zm1.638 62.076c26.901-64.939 81.966-49.713 74.79-17.358-9.475 28.746-94.694 65.343-74.79 17.358zm10.2 204.24c-6.035-7.484-7.973-12.562-25.627-16.477-7.21-2.339 12.573-8.022 21.553 0.15 8.981 8.172 10.121 23.831 4.074 16.327zm2.081-67.981c-9.008-3.857-36.034 12.906-24.444-2.564 24.098-32.199 48.937-20.631 43.796 15.429-5.123 36.063-10.311-9.001-19.352-12.865zm31.513-55.619c-5.902-56.825 99.552-101.29 125.68-80.076 22.573 23.495-119.77 136.88-125.68 80.076zm47.264 169.3c-6.534-7.095-8.847-12.033-26.674-14.781-7.34-1.835 12.022-8.798 21.504-1.256 9.506 7.583 11.675 23.109 5.17 16.037zm22.819-61.127c-9.624 38.422-10.134-10.889-19.427-16.101-9.341-5.153-40.445 9.896-26.186-5.498 29.687-32.096 55.209-16.778 45.613 21.599zm35.442-69.379c-22.225-11.092-27.791-27.751 18.892-57.471 61.703-41.865 94.349-22.264 38.867 33.306-30.443 30.464-35.557 35.286-57.759 24.165zm20.031 170.23c-6.518-7.092-8.798-12.022-26.665-14.745-7.321-1.916 11.98-8.842 21.504-1.256 9.522 7.518 11.659 23.106 5.161 16.001zm42.351-48.446c-15.004 39.862-9.466-12.893-18.774-19.588s-44.409 5.574-27.277-9.114c35.678-30.629 61.051-11.145 46.051 28.702zm29.014-89.138c-54.839 24.813-18.932-53.569 11.74-52.929 23.528 5.218 30.695 28.395 21.25 57.165-9.454 28.733-47.015 17.321-32.99-4.236zm15.918 200.18c-5.628-7.841-7.344-12.99-24.741-17.83-7.063-2.772 12.957-7.351 21.519 1.313 8.536 8.624 8.842 24.322 3.222 16.517zm51.443-44.966c-15.017 39.842-9.482-12.896-18.791-19.592-9.328-6.682-44.442 5.567-27.293-9.118 35.711-30.622 61.084-11.137 46.084 28.71zm-3.479-95.378c-5.228-12.101-4.229-28.79 16.91-55.831 23.657-30.214 118.66-83.13 145.43-120.4 26.764-37.237 67.739-48.203 97.303-49.324 29.546-1.193 69.729-1.525 44.575 28.375-25.121 29.907-112.46 96.864-155.08 142.96-42.59 46.035-76.913 86.226-97.74 86.22-1.691 4e-3 -3.114 0.132-4.302 0.363-20.451-2.63-36.417-16.582-47.094-32.365zm43.565 202.98c-5.619-7.805-7.315-12.967-24.709-17.823-7.034-2.748 12.987-7.328 21.519 1.313 8.533 8.64 8.834 24.355 3.19 16.51zm58.743-47.617c-12.297 40.773-10.32-12.222-20.064-18.273-9.744-6.052-43.945 8.603-27.823-7.273 33.512-32.968 60.148-15.217 47.887 25.546zm3.19 95.282c-3.692-0.819-3.868-13.992-0.605-21.721 6.065-6.384 4.248 22.529 0.605 21.721zm93.53-258.31c-43.881 46.8-83.094 78.976-102.54 71.946-7.951-7.049-9.211-37.135 66.55-104.63 84.54-75.29 120.61-105.82 151.96-135.89 31.332-30.044 53.697-54.434 83.912-72.383 30.23-18.015 112.61-24.412 136.7-25.231 20.79-2.605 34.518 8.469 28.687 17.744-1.573 1.419-3.496 2.871-5.822 4.352-114.92 73.2-281.43 239.81-350.29 313.96-68.86 74.138-75.752 7.884-9.153-69.871zm-13.944 354.07c-2.811-9.214-2.729-14.704-17.611-24.908-5.77-4.877 14.631-2.711 19.921 8.206 5.271 10.93 0.488 25.895-2.31 16.702zm25.127-43.281c-14.34 23.674-4.499-9.364-9.654-14.759-5.168-5.415-29.066-1.747-16.349-9.1 26.478-15.301 40.35 0.153 26.003 23.859zm14.355-120.14c16.62-22.766 36.126-46.629 57.268-70.712 9.641-6.048 17.125 2.699 21.647 17.293 5.399 17.413-4.874 35.946-21.77 59.966-16.182 22.998-23.004 38.924-31.979 44.419-26.423 13.709-50.889-15.695-25.166-50.966zm33.121 277.7c-3.567-8.985-3.912-14.415-19.609-23.354-6.156-4.378 14.37-3.94 20.542 6.57 6.152 10.454 2.598 25.778-0.933 16.784zm24.693-69.267c-6.553-3.519-28.153 7.407-18.357-3.538 20.377-22.799 38.391-12.435 32.144 14.566-6.236 26.951-7.221-7.489-13.787-11.028zm69.744-27.591c-4.071-18.039 4.975-56.057 31.011-138.77 0.138-0.317 0.266-0.656 0.374-1.026 3.187-10.878 18.812 4.362 28.326 11.292 9.501 6.925 24.872 12.408 26.084 24.605-7.161 30.041-10.276 54.186-12.647 67.786-5.111 29.398-0.667 57.77-13.467 66.872-19.677 7.755-46.316-3.755-59.681-30.756zm23.591 98.919c12.271-28.006 32.592-23.774 35.078 3.821 2.461 27.555-9.198-4.863-16.552-6.167-7.321-1.297-24.417 15.792-18.526 2.346zm19.963 75.075c-6.383-7.234-8.534-12.204-26.363-15.332-7.292-2.048 12.228-8.563 21.566-0.76 9.333 7.75 11.164 23.322 4.797 16.092zm52.595-125.78c-0.376-0.518-0.779-1.045-1.243-1.595-10.361-12.351-7.684-21.002-2.311-79.922 1.532-16.837 5.369-35.552 10.303-54.114 4.713-8.505 14.896-1.043 30.909 10.803 15.916 11.758 33.106 17.726 36.762 30.853-0.146 6.696-0.291 12.557-0.426 17.281-1.074 38.039 8.494 88.288-2.929 96.716-21.203 5.209-52.431-1.264-71.065-20.022zm48.459 77.166c-7.373 1.033-18.296 22.572-16.904 7.991 2.933-30.455 23.578-32.728 34.52-7.32 10.938 25.424-10.249-1.757-17.616-0.671zm15.855 91.498c-8.154-5.148-11.621-9.308-29.566-7.332-7.574 0.076 9.295-11.641 20.438-6.777 11.135 4.829 17.278 19.274 9.128 14.109zm42.477-149.12c-0.547-1.828-1.492-3.711-2.789-5.523-4.531-6.394-8.857-40.975-9.071-88.893 3.243-7.719 22.37 7.605 39.817 16.32 17.3 8.613 36.994 13.194 42.349 25.769 0.963 7.344 1.789 12.978 2.286 16.459 1.589 11.322 5.561 31.107 0.878 43.336-16.115 17.897-51.617 18.075-73.47-7.468zm35.218 85.138c-6.709-29.823 12.196-38.454 30.524-17.708 18.288 20.771-10.287 1.523-16.98 4.841-6.669 3.289-10.316 27.183-13.544 12.867zm26.639 58.946c-9.567-1.106-14.508-3.355-29.806 6.248-6.805 3.362 3.306-14.518 15.432-15.014 12.125-0.495 23.941 9.872 14.374 8.766zm79.636-100.6c-6.668 3.289-10.332 27.179-13.544 12.868-6.709-29.823 12.199-38.471 30.524-17.709 18.32 20.779-10.272 1.527-16.98 4.841zm19.469 43.618c-3.665 6.125-13.724-0.755-7.27-5.486 6.442-4.75 11.135-1.385 7.27 5.486zm85.393 0.263c-3.792-6.883 0.885-10.201 7.293-5.406 6.431 4.766-3.647 11.551-7.293 5.406zm19.731-43.479c-6.675-3.357-35.404 15.731-16.938-4.893 18.477-20.673 37.309-11.9 30.378 17.875-3.292 14.298-6.765-9.625-13.44-12.982zm68.321-35.505c-4.668-12.247-0.531-32.015 1.159-43.367 0.513-3.485 1.376-9.145 2.391-16.531 5.527-12.447 25.189-16.935 42.469-25.454 17.481-8.606 36.658-23.762 39.937-16.075-0.517 47.937-5.07 82.493-9.667 88.839-1.283 1.786-2.225 3.643-2.781 5.453-21.988 25.416-57.461 25.067-73.508 7.135zm7.28 59.968c18.473-20.657 37.338-11.876 30.41 17.883-3.325 14.291-6.801-9.616-13.476-12.973-6.649-3.318-35.4 15.714-16.934-4.91zm33.157 83.113c-15.228-9.73-20.209-7.529-29.759-6.463-9.579 1.043 2.306-9.232 14.422-8.679 12.117 0.554 22.13 18.508 15.337 15.142zm73.332-91.581c11.131-25.349 31.786-22.937 34.477 7.544 1.34 14.602-9.44-7.034-16.824-8.121-7.395-1.125-28.751 25.933-17.653 0.577zm30.827 83.681c-17.936-2.102-21.49 2.05-29.66 7.141-8.128 5.135-1.883-9.283 9.218-14.085 11.205-4.728 27.989 7.068 20.442 6.944zm89.478-112.38c-7.364 1.224-19.212 33.61-16.569 6.017 2.639-27.577 23.052-31.674 35.101-3.576 5.804 13.492-11.161-3.698-18.532-2.441zm24.52 62.211c-17.782 3.028-20.006 8.009-26.403 15.197-6.437 7.214-4.486-8.414 4.895-16.094 9.392-7.73 28.819-1.097 21.508 0.897zm87.808-130.46c-6.59 3.479-7.799 37.88-13.882 10.899-6.055-27.027 12.052-37.264 32.244-14.366 9.723 11.038-11.781-0.048-18.362 3.467zm34.038-157.09c-9.115-5.343-15.792-21.431-32.058-44.861-16.718-24.124-26.882-42.715-21.426-60.096 4.596-14.494 12.105-23.17 21.634-17.276 21.042 24.283 40.445 48.336 56.954 71.269 25.393 35.26 1.069 64.382-25.104 50.964zm9.948 203.25c-15.755 8.865-16.132 14.29-19.75 23.231-3.635 8.937-7.053-6.384-0.849-16.817 6.237-10.426 26.782-10.775 20.599-6.414zm38.496-148.73c-5.194 5.338 4.436 38.442-9.781 14.683-14.164-23.764-0.142-39.176 26.185-23.68 12.652 7.454-11.209 3.66-16.404 8.997zm32.876 33.389c-14.967 10.125-14.912 15.542-17.745 24.743-2.869 9.21-7.58-5.795-2.24-16.678 5.345-10.899 25.8-12.938 19.985-8.065zm-29.468-329.47c66.077 78.193 58.787 144.44-9.6 69.826-68.427-74.583-233.79-242.28-348.24-316.21-2.355-1.522-4.293-3.011-5.872-4.464-5.58-9.285 8.171-20.153 28.868-17.41 24.091 0.971 106.42 7.904 136.56 26.088 30.062 18.132 52.275 42.631 83.419 72.882 31.137 30.283 67.042 61.038 151.09 136.9 75.041 67.686 73.895 97.791 65.994 104.95-19.445 7.121-58.532-25.365-102.22-72.563zm91.89 258.99c-3.653 0.791-5.261-28.124 0.753-21.712 3.185 7.765 2.94 20.896-0.753 21.712zm23.992-113.37c-9.77 5.941-8.148 59.01-20.172 18.145-12.004-40.878 14.719-58.448 48.051-25.251 16.023 15.931-18.078 1.103-27.879 7.106zm35.698-104.55c-1.164-0.222-2.527-0.356-4.165-0.366-20.848-0.148-54.918-40.567-97.216-86.89-42.314-46.327-129.2-113.88-154.16-143.93-24.938-30.061 15.229-29.467 44.758-28.099 29.536 1.335 70.463 12.547 96.955 49.959 26.561 37.41 121.2 90.971 144.66 121.34 21.112 27.299 21.882 44.056 16.48 56.122-10.803 15.666-26.86 29.432-47.312 31.866zm27.387 153c-17.419 4.726-19.141 9.853-24.833 17.662-5.691 7.81-5.268-7.916 3.298-16.5 8.599-8.576 28.59-3.866 21.535-1.162zm34.901-109.16c-9.31 6.663-4.161 59.43-18.921 19.49-14.735-39.969 10.718-59.267 46.238-28.408 17.028 14.812-17.985 2.312-27.317 8.918zm49.412-135.31c13.866 21.615-23.747 32.794-33.026 4.002-9.275-28.808-1.959-51.939 21.616-57.022 30.732-0.414 66.113 78.184 11.41 53.02zm7.649 182.36c-17.426 4.759-19.172 9.915-24.84 17.695-5.664 7.764-5.293-7.956 3.298-16.5 8.612-8.556 28.594-3.883 21.542-1.195zm39.722-112.5c-9.356 6.635-4.154 59.397-18.937 19.487-14.736-39.969 10.754-59.276 46.281-28.45 17.015 14.791-17.992 2.344-27.344 8.963zm49.876 53.599c-17.85 2.634-20.157 7.527-26.766 14.583-6.539 7.053-4.276-8.505 5.285-15.99 9.536-7.526 28.832-0.457 21.481 1.407zm48.919-101.89c-9.351 5.139-10.202 54.458-19.552 15.976s16.264-53.613 45.763-21.3c14.174 15.487-16.867 0.218-26.211 5.324zm29.637 62.657c-17.866 2.63-20.174 7.524-26.766 14.583-6.548 7.017-4.292-8.509 5.252-15.998 9.565-7.501 28.861-0.432 21.514 1.415zm52.75-98.591c-9.056 3.81-14.532 48.833-19.435 12.731-4.891-36.081 19.962-47.473 43.893-15.122 11.497 15.53-15.435-1.426-24.458 2.391zm27.4 51.712c-17.673 3.775-19.65 8.81-25.766 16.285-6.083 7.482-4.827-8.197 4.2-16.3 9.03-8.119 28.769-2.347 21.566 0.015zm31.529-85.654c-4.48-33.201 18.367-43.695 40.374-13.923 10.584 14.294-14.191-1.289-22.506 2.204-8.314 3.493-13.392 44.937-17.868 11.719zm41.267 37.625c-17.66 3.795-19.641 8.847-25.737 16.309-6.1 7.478-4.843-8.201 4.18-16.287 9.063-8.112 28.785-2.343 21.557-0.022zm9.164-151.76c-32.026-18.051-34.647-45.039 0.068-30.265 47.095 20.035 31.937 48.33-0.068 30.265zm52.904 53.685c3.078-14.5-1.563-28.888 10.934-20.814 17.246 8.628 27.335 34.156 7.681 42.983-19.629 8.867-21.648-7.641-18.615-22.169zm20.651 60.251c-8.39 11.05-19.127 4.124-9.751-2.524 9.345-6.586 17.653-3.762 9.751 2.524z"/>
	<linearGradient id="ay" x1="1522.6" x2="2133" y1="563.19" y2="563.19" gradientUnits="userSpaceOnUse">
		<stop stop-color="#51F321" offset="0"/>
		<stop stop-color="#C80054" offset="1"/>
	</linearGradient>
	<path d="m1547.6 517.46c24.731 5.847 122.1 0.33 164.15 31.295 42.08 31.006 129.72 9.043 178.88 36.989 46.289 26.31 74.733-17.646 215.1 73.065 14.175 9.134 16.699 4.715 16.596-0.202-4.384-16.994-6.097-36.431 9.058-41.498 0 0 0.849-1.317 1.652-3.972-22.061-8.36-62.204-46.557-114.62-70.281-114.46-51.882-120.46-75.047-129.86-80.577-48.049 0.487-90.23 9.573-111.58 24.701-67.526-56.291-99.025 12.069-132.9-2.21-32.853-13.83-79.878-13.013-121.04 17.733-2.254 4.752 5.129 10.36 24.567 14.957z" fill="url(#ay)"/>
	<linearGradient id="ax" x1="1522.4" x2="1993.2" y1="731.18" y2="731.18" gradientUnits="userSpaceOnUse">
		<stop stop-color="#FFF166" offset="0"/>
		<stop stop-color="#F0E660" offset=".0782"/>
		<stop stop-color="#E5DD5B" offset=".1758"/>
		<stop stop-color="#E1DA59" offset=".28"/>
		<stop stop-color="#24B34B" offset=".67"/>
		<stop stop-color="#21777E" offset=".89"/>
		<stop stop-color="#2E3192" offset="1"/>
	</linearGradient>
	<path d="m1923.6 781.92c-84.049-75.862-119.95-106.62-151.09-136.9-31.145-30.25-53.357-54.749-83.419-72.882-30.137-18.183-112.47-25.117-136.56-26.088-20.697-2.743-34.448 8.125-28.868 17.41 1.579 1.453 3.517 2.942 5.872 4.464 114.45 73.928 279.81 241.62 348.24 316.21 68.387 74.609 75.677 8.367 9.6-69.826 43.687 47.199 82.773 79.684 102.22 72.563 7.902-7.156 9.048-37.261-65.993-104.95z" fill="url(#ax)"/>
	<linearGradient id="aw" x1="1775.6" x2="2089.1" y1="725.48" y2="725.48" gradientUnits="userSpaceOnUse">
		<stop stop-color="#DAD521" offset="0"/>
		<stop stop-color="#7C00A8" offset="1"/>
	</linearGradient>
	<path d="m2069.8 767.38c-23.458-30.37-118.1-83.93-144.66-121.34-26.492-37.412-67.419-48.624-96.955-49.959-29.529-1.368-69.695-1.962-44.758 28.099 24.958 30.049 111.85 97.606 154.16 143.93 42.298 46.323 76.368 86.742 97.216 86.89 1.638 0.01 3.001 0.144 4.165 0.366 20.452-2.433 36.509-16.2 47.311-31.865 5.403-12.067 4.633-28.825-16.479-56.123z" fill="url(#aw)"/>
	<linearGradient id="av" x1="1934.6" x2="2127.1" y1="519.81" y2="519.81" gradientUnits="userSpaceOnUse">
		<stop stop-color="#4052D2" offset="0"/>
		<stop stop-color="#00C1FF" offset=".5169"/>
		<stop stop-color="#7D00AA" offset=".95"/>
	</linearGradient>
	<path d="m1943.7 481.9c33.018 21.337 172.03 102.5 183.38 91.579-4.409-9.664-11.251-20.967-21.66-33.951-35.047-43.769-100-66.793-164.06-74.389-13.146 2.161-4.258 12.532 2.343 16.761z" fill="url(#av)"/>
	<linearGradient id="au" x1="1936.1" x2="2113.1" y1="680.84" y2="680.84" gradientUnits="userSpaceOnUse">
		<stop stop-color="#FFF33B" offset="0"/>
		<stop stop-color="#FEE72E" offset=".0401"/>
		<stop stop-color="#FED51B" offset=".1171"/>
		<stop stop-color="#FDCA10" offset=".1964"/>
		<stop stop-color="#FDC70C" offset=".2809"/>
		<stop stop-color="#F3903F" offset=".6685"/>
		<stop stop-color="#ED683C" offset=".8876"/>
		<stop stop-color="#E93E3A" offset="1"/>
	</linearGradient>
	<path d="m2098.2 677.36c-16.131-10.395-93.809-63.756-147.21-61.501-53.416 2.251 51.245 73.664 88.284 102.64 31.164 24.427 48.808 31.553 54.642 25.155 0.886-14.528 6.897-29.486 17.99-42.35 3.237-7.201 0.588-14.696-13.707-23.943z" fill="url(#au)"/>
	<linearGradient id="at" x1="2220.4" x2="2348.3" y1="658.47" y2="658.47" gradientUnits="userSpaceOnUse">
		<stop stop-color="#552F7F" offset="0"/>
		<stop stop-color="#FFDB00" offset="1"/>
	</linearGradient>
	<path d="m2348.1 693.7c6.308-56.768-98.861-101.9-125.18-80.854-22.684 23.338 118.94 137.64 125.18 80.854z" fill="url(#at)"/>
	<linearGradient id="ar" x1="2317.1" x2="2395.3" y1="602.22" y2="602.22" gradientUnits="userSpaceOnUse">
		<stop stop-color="#AD00A1" offset=".0056"/>
		<stop stop-color="#DAD521" offset=".5"/>
		<stop stop-color="#63F222" offset="1"/>
	</linearGradient>
	<path d="m2392.4 613.33c-26.469-65.07-81.569-50.179-74.636-17.793 9.28 28.791 94.255 65.937 74.636 17.793z" fill="url(#ar)"/>
	<linearGradient id="aq" x1="2156.5" x2="2259.1" y1="694.29" y2="694.29" gradientUnits="userSpaceOnUse">
		<stop stop-color="#3BA2FF" offset="0"/>
		<stop stop-color="#2BC0F5" offset=".0494"/>
		<stop stop-color="#1EDBED" offset=".1046"/>
		<stop stop-color="#14EEE7" offset=".1611"/>
		<stop stop-color="#0EF9E3" offset=".2191"/>
		<stop stop-color="#0CFDE2" offset=".2809"/>
		<stop stop-color="#4EF33F" offset=".6685"/>
		<stop stop-color="#97ED3C" offset=".8876"/>
		<stop stop-color="#E8E93A" offset="1"/>
	</linearGradient>
	<path d="m2184.7 707.28c30.308 30.684 35.403 35.498 57.659 24.563 22.309-10.941 27.957-27.556-18.551-57.616-61.441-42.203-94.24-22.847-39.108 33.053z" fill="url(#aq)"/>
	<linearGradient id="ap" x1="2113.7" x2="2179.2" y1="748.05" y2="748.05" gradientUnits="userSpaceOnUse">
		<stop stop-color="#F68B1F" offset="0"/>
		<stop stop-color="#0080C8" offset=".4888"/>
		<stop stop-color="#F26122" offset=".9944"/>
	</linearGradient>
	<path d="m2139.3 710.88c-23.575 5.083-30.891 28.214-21.616 57.022 9.279 28.792 46.892 17.613 33.026-4.002 54.704 25.164 19.323-53.434-11.41-53.02z" fill="url(#ap)"/>
	<linearGradient id="ao" x1="1780.6" x2="1871.4" y1="995.48" y2="995.48" gradientUnits="userSpaceOnUse">
		<stop stop-color="#37FBF7" offset="0"/>
		<stop stop-color="#EDE71C" offset=".5056"/>
		<stop stop-color="#2DF520" offset="1"/>
	</linearGradient>
	<path d="m1860.6 1004.9c-16.51-22.933-35.912-46.987-56.954-71.269-9.528-5.895-17.037 2.781-21.634 17.276-5.456 17.381 4.708 35.972 21.426 60.096 16.266 23.43 22.942 39.518 32.058 44.861 26.173 13.418 50.497-15.704 25.104-50.964z" fill="url(#ao)"/>
	<linearGradient id="an" x1="1607.8" x2="1750.5" y1="879.3" y2="879.3" gradientUnits="userSpaceOnUse">
		<stop stop-color="#1FF626" offset="0"/>
		<stop stop-color="#C80054" offset=".4888"/>
		<stop stop-color="#75F222" offset=".9944"/>
	</linearGradient>
	<path d="m1609.1 780.25c-10.596 22.318 48.853 91.122 77.431 166.63 6.28 16.605 12.13 32.256 17.512 46.877 9.636 5.221 47.255-26.425 46.523-45.851-2.301-5.852-4.358-11.891-6.087-18.125-12.398-44.543-54.36-110.31-76.969-137.72-7.658-7.328-15.216-14.477-22.627-21.413-12.097-9.368-26.399-10.156-35.783 9.608z" fill="url(#an)"/>
	<linearGradient id="am" x1="1462.2" x2="1546.7" y1="1036.9" y2="1036.9" gradientUnits="userSpaceOnUse">
		<stop stop-color="#DAD521" offset="0"/>
		<stop stop-color="#7C00A8" offset="1"/>
	</linearGradient>
	<path d="m1540.9 1129c-0.117-5.491-0.285-11.096-0.512-16.804-2.807-70.237 9.974-168.45 5.316-182.84-4.605-14.397-28.099-44.758-37.45-16.569-9.311 28.163-40.337 148.8-41.993 198.41-0.703 21.381-2.309 41.226-4.059 57.918 4.049 14.762 73.528-21.593 78.698-40.115z" fill="url(#am)"/>
	<linearGradient id="al" x1="1357.9" x2="1496.7" y1="940.33" y2="940.33" gradientUnits="userSpaceOnUse">
		<stop stop-color="#4052D2" offset="0"/>
		<stop stop-color="#00C1FF" offset=".5169"/>
		<stop stop-color="#7D00AA" offset=".95"/>
	</linearGradient>
	<path d="m1455 701.01c-4.575-12.804-9.955-31.553-20.493-21.807-6.618 10.178-13.129 22.917-19.667 38.389 4.095 57.259 28.996 74.539 21.723 173.11-8.011 108.53-67.471 220.15-73.246 273.19-1.144 10.604-3.035 21.832-5.402 33 17.559 14.411 72.784 5.169 80.584-8.324 4.453-26.642 7.438-56.755 8.877-79.399 3.106-49.938 33.266-167.29 46.485-213.23 13.216-46.009-23.46-152.06-38.861-194.93z" fill="url(#al)"/>
	<linearGradient id="ak" x1="1715.1" x2="1821.9" y1="1064.6" y2="1064.6" gradientUnits="userSpaceOnUse">
		<stop stop-color="#7F440D" offset="0"/>
		<stop stop-color="#00CFFF" offset="1"/>
	</linearGradient>
	<path d="m1768.4 983.78c-7.907-5.598-23.688 11.828-30.773 18.32-7.01 6.379-23.35 10.35-22.534 22.234 13.104 36.661 22.26 64.722 26.516 82.365 5.498 22.618 14.908 34.233 24.459 38.727 27.881 8.029 52.258-29.675 55.776-69.707-0.423-4.914-3.263-11.593-14.327-31.711-9.082-16.438-24.913-36.345-39.117-60.228z" fill="url(#ak)"/>
	<linearGradient id="aj" x1="1452.9" x2="1541.1" y1="1213" y2="1213" gradientUnits="userSpaceOnUse">
		<stop stop-color="#A02632" offset="0"/>
		<stop stop-color="#1FF246" offset="1"/>
	</linearGradient>
	<path d="m1528.6 1251.3c0.556-1.809 1.498-3.667 2.781-5.453 4.597-6.346 9.149-40.902 9.667-88.839-3.28-7.688-22.456 7.469-39.937 16.075-17.28 8.519-36.942 13.007-42.469 25.454-1.014 7.387-1.877 13.046-2.391 16.531-1.69 11.352-5.827 31.12-1.159 43.367 16.047 17.932 51.52 18.281 73.508-7.135z" fill="url(#aj)"/>
	<linearGradient id="ai" x1="1355.6" x2="1433.9" y1="1229.1" y2="1229.1" gradientUnits="userSpaceOnUse">
		<stop stop-color="#007DFF" offset="0"/>
		<stop stop-color="#28F584" offset=".5"/>
		<stop stop-color="#5845BE" offset="1"/>
	</linearGradient>
	<path d="m1412.9 1251.8c1.014-0.451 2.101-0.86 3.268-1.215 7.04-2.147 12.984-17.615 17.774-38.575-0.353-13.164-27.875-0.413-47.708-0.393-18.724-0.021-32.836-0.123-30.283 8.453 10.021 18.058 34.481 33.903 56.949 31.73z" fill="url(#ai)"/>
	<linearGradient id="ag" x1="1558.8" x2="1643.9" y1="1173.5" y2="1173.5" gradientUnits="userSpaceOnUse">
		<stop stop-color="#FFF33B" offset="0"/>
		<stop stop-color="#F6D955" offset=".0662"/>
		<stop stop-color="#EFC768" offset=".1346"/>
		<stop stop-color="#EBBC73" offset=".205"/>
		<stop stop-color="#EAB877" offset=".28"/>
		<stop stop-color="#DA9087" offset=".67"/>
		<stop stop-color="#CD6C8F" offset=".89"/>
		<stop stop-color="#BE2F92" offset="1"/>
	</linearGradient>
	<path d="m1639.6 1150.9c-1.424-16.756-5.114-35.389-9.894-53.888-4.591-8.855-14.877-1.45-31.082 10.372-15.94 11.601-33.08 17.449-36.934 30.448 0.104 6.763 0.213 12.68 0.319 17.446 0.778 37.989-9.044 88.029 2.234 96.689 21.27 5.384 52.762-0.984 71.485-19.851 0.319-0.418 0.658-0.844 1.033-1.282 10.436-12.284 7.79-20.996 2.839-79.934z" fill="url(#ag)"/>
	<linearGradient id="af" x1="1467.1" x2="1689.4" y1="846.63" y2="846.63" gradientUnits="userSpaceOnUse">
		<stop stop-color="#FBD437" offset="0"/>
		<stop stop-color="#ED1C24" offset=".5056"/>
		<stop stop-color="#F58220" offset="1"/>
	</linearGradient>
	<path d="m1471.8 648.11c-16.085 4.665 12.707 74.786 34.447 140.39 21.91 66.142 41.806 87.425 78.531 143.27 25.456 38.678 41.718 77.926 52.428 112.74 7.684 8.463 53.742-20.312 52.131-37.871-33.147-99.137-70.809-164.41-88.308-192.29-18.767-29.863-4.443-63.714-6.371-72.559-1.44-6.611-1.556-15.264-14.154-29.465-23.92-20.93-43.03-36.714-54.233-45.143-20.711-15.586-38.41-22.535-54.471-19.065z" fill="url(#af)"/>
	<linearGradient id="ae" x1="1646.8" x2="1732.9" y1="1129.4" y2="1129.4" gradientUnits="userSpaceOnUse">
		<stop stop-color="#B5C634" offset="0"/>
		<stop stop-color="#A92E91" offset="1"/>
	</linearGradient>
	<path d="m1732 1184.8c4.111-18.051-4.736-56.171-30.187-138.9-0.123-0.298-0.234-0.617-0.332-0.961-3.096-10.877-18.846 4.255-28.421 11.1-9.497 6.877-24.796 12.212-26.197 24.318 6.978 30.143 9.933 54.353 12.216 67.981 4.971 29.514 0.279 57.943 13.192 67.025 19.636 7.743 46.251-3.654 59.729-30.561z" fill="url(#ae)"/>
	<linearGradient id="ad" x1="1561.1" x2="1621.1" y1="1030.3" y2="1030.3" gradientUnits="userSpaceOnUse">
		<stop stop-color="#F37121" offset="0"/>
		<stop stop-color="#0080C8" offset="1"/>
	</linearGradient>
	<path d="m1564 963.94c-2.886 22.883-3.085 91.809-2.641 143.33 7.541 6.703 56.991-26.168 59.756-40.095-11.094-35.027-23.945-65.264-29.559-75.281-10.014-17.869-23.602-59.597-27.556-27.957z" fill="url(#ad)"/>
	<linearGradient id="ac" x1="2149.6" x2="2208.6" y1="502.71" y2="502.71" gradientUnits="userSpaceOnUse">
		<stop stop-color="#F37121" offset="0"/>
		<stop stop-color="#0080C8" offset="1"/>
	</linearGradient>
	<path d="m2172.8 515.82c38.051 19.525 47.291-16.314 20.566-25.977-48.353-17.317-58.637 6.464-20.566 25.977z" fill="url(#ac)"/>
	<linearGradient id="ab" x1="2146.7" x2="2197" y1="575.08" y2="575.08" gradientUnits="userSpaceOnUse">
		<stop stop-color="#00AB66" offset="0"/>
		<stop stop-color="#EC5C2F" offset="1"/>
	</linearGradient>
	<path d="m2162.9 548.75c-18.915-2.112-26.17 7.158 5.938 41.839 33.825 36.56 43.294-27.786-5.938-41.839z" fill="url(#ab)"/>
	<linearGradient id="aa" x1="1724.9" x2="1772.4" y1="889.57" y2="889.57" gradientUnits="userSpaceOnUse">
		<stop stop-color="#FFF200" offset="0"/>
		<stop stop-color="#F5AE28" offset=".5"/>
		<stop stop-color="#6FBE45" offset="1"/>
	</linearGradient>
	<path d="m1771.4 915.49c5.271-14.995-10.56-27.75-26.449-44.357-15.906-16.611-23.205-21.965-18.778-12.118 4.41 9.843 20.344 30.282 26.114 49.826 6.305 18.682 13.891 21.655 19.113 6.649z" fill="url(#aa)"/>
	<linearGradient id="z" x1="2255.3" x2="2312.9" y1="493.05" y2="493.05" gradientUnits="userSpaceOnUse">
		<stop stop-color="#FFF166" offset="0"/>
		<stop stop-color="#F0E660" offset=".0782"/>
		<stop stop-color="#E5DD5B" offset=".1758"/>
		<stop stop-color="#E1DA59" offset=".28"/>
		<stop stop-color="#24B34B" offset=".67"/>
		<stop stop-color="#21777E" offset=".89"/>
		<stop stop-color="#2E3192" offset="1"/>
	</linearGradient>
	<path d="m2283.4 507.44c33.862 14.275 45.672-15.536-3.401-30.07-36.151-10.704-30.461 15.794 3.401 30.07z" fill="url(#z)"/>
	<linearGradient id="y" x1="2366.4" x2="2423.9" y1="536.91" y2="536.91" gradientUnits="userSpaceOnUse">
		<stop stop-color="#51F321" offset="0"/>
		<stop stop-color="#C80054" offset="1"/>
	</linearGradient>
	<path d="m2394.4 551.29c33.862 14.276 45.738-15.522-3.352-30.059-36.171-10.691-30.476 15.791 3.352 30.059z" fill="url(#y)"/>
	<linearGradient id="x" x1="2463.6" x2="2518.5" y1="587.09" y2="587.09" gradientUnits="userSpaceOnUse">
		<stop stop-color="#FFF200" offset=".05"/>
		<stop stop-color="#0E58A8" offset=".5337"/>
		<stop stop-color="#A93E89" offset="1"/>
	</linearGradient>
	<path d="m2488.6 571.2c-34.715-14.775-32.093 12.213-0.068 30.265 32.006 18.064 47.164-10.231 0.068-30.265z" fill="url(#x)"/>
	<linearGradient id="v" x1="2174.8" x2="2230" y1="838.81" y2="838.81" gradientUnits="userSpaceOnUse">
		<stop stop-color="#1FF626" offset="0"/>
		<stop stop-color="#C80054" offset=".4888"/>
		<stop stop-color="#75F222" offset=".9944"/>
	</linearGradient>
	<path d="m2225.4 824.8c-35.527-30.826-61.017-11.519-46.281 28.45 14.783 39.911 9.581-12.851 18.937-19.487 9.352-6.619 44.359 5.828 27.344-8.963z" fill="url(#v)"/>
	<linearGradient id="u" x1="2078.1" x2="2133.2" y1="904.28" y2="904.28" gradientUnits="userSpaceOnUse">
		<stop stop-color="#51F321" offset="0"/>
		<stop stop-color="#C80054" offset="1"/>
	</linearGradient>
	<path d="m2128.6 890.29c-35.52-30.859-60.973-11.561-46.238 28.408 14.76 39.94 9.61-12.828 18.921-19.49 9.332-6.607 44.345 5.893 27.317-8.918z" fill="url(#u)"/>
	<linearGradient id="t" x1="1980.2" x2="2035.4" y1="964.41" y2="964.41" gradientUnits="userSpaceOnUse">
		<stop stop-color="#5652C7" offset="0"/>
		<stop stop-color="#802109" offset=".5112"/>
		<stop stop-color="#47F141" offset="1"/>
	</linearGradient>
	<path d="m2031.1 952.81c-33.331-33.197-60.054-15.627-48.051 25.251 12.024 40.865 10.402-12.204 20.172-18.145 9.8-6.003 43.901 8.825 27.879-7.106z" fill="url(#t)"/>
	<linearGradient id="s" x1="2275.3" x2="2326.7" y1="789.28" y2="789.28" gradientUnits="userSpaceOnUse">
		<stop stop-color="#00A995" offset="0"/>
		<stop stop-color="#006EB9" offset=".5"/>
		<stop stop-color="#00AA4F" offset="1"/>
	</linearGradient>
	<path d="m2323 780.15c-29.5-32.313-55.114-17.182-45.763 21.3s10.202-10.837 19.552-15.976c9.345-5.106 40.386 10.163 26.211-5.324z" fill="url(#s)"/>
	<linearGradient id="r" x1="2359.2" x2="2406.5" y1="752.15" y2="752.15" gradientUnits="userSpaceOnUse">
		<stop stop-color="#FFF166" offset="0"/>
		<stop stop-color="#F0E660" offset=".0782"/>
		<stop stop-color="#E5DD5B" offset=".1758"/>
		<stop stop-color="#E1DA59" offset=".28"/>
		<stop stop-color="#24B34B" offset=".67"/>
		<stop stop-color="#21777E" offset=".89"/>
		<stop stop-color="#2E3192" offset="1"/>
	</linearGradient>
	<path d="m2403.7 747.15c-23.931-32.351-48.784-20.959-43.893 15.122 4.903 36.101 10.379-8.922 19.435-12.731 9.023-3.817 35.955 13.139 24.458-2.391z" fill="url(#r)"/>
	<linearGradient id="q" x1="2437.6" x2="2481.1" y1="706.28" y2="706.28" gradientUnits="userSpaceOnUse">
		<stop stop-color="#9300AB" offset="0"/>
		<stop stop-color="#94EC2F" offset="1"/>
	</linearGradient>
	<path d="m2478.5 701.68c-22.006-29.773-44.854-19.278-40.374 13.923 4.476 33.218 9.554-8.227 17.868-11.719 8.315-3.493 33.09 12.09 22.506-2.204z" fill="url(#q)"/>
	<linearGradient id="p" x1="2540.3" x2="2570.9" y1="655.91" y2="655.91" gradientUnits="userSpaceOnUse">
		<stop stop-color="#AD00A1" offset=".0056"/>
		<stop stop-color="#DAD521" offset=".5"/>
		<stop stop-color="#63F222" offset="1"/>
	</linearGradient>
	<path d="m2552.4 634.34c-12.497-8.074-7.856 6.314-10.934 20.814-3.033 14.527-1.014 31.036 18.615 22.169 19.653-8.826 9.565-34.355-7.681-42.983z" fill="url(#p)"/>
	<linearGradient id="o" x1="1868.6" x2="1904" y1="1114.4" y2="1114.4" gradientUnits="userSpaceOnUse">
		<stop stop-color="#F68B1F" offset="0"/>
		<stop stop-color="#0080C8" offset=".4888"/>
		<stop stop-color="#F26122" offset=".9944"/>
	</linearGradient>
	<path d="m1900.4 1101.4c-26.326-15.496-40.349-0.084-26.185 23.68 14.217 23.759 4.586-9.346 9.781-14.683s29.056-1.543 16.404-8.997z" fill="url(#o)"/>
	<linearGradient id="n" x1="1786.4" x2="1822.3" y1="1215.5" y2="1215.5" gradientUnits="userSpaceOnUse">
		<stop stop-color="#FFF33B" offset="0"/>
		<stop stop-color="#F6D955" offset=".0662"/>
		<stop stop-color="#EFC768" offset=".1346"/>
		<stop stop-color="#EBBC73" offset=".205"/>
		<stop stop-color="#EAB877" offset=".28"/>
		<stop stop-color="#DA9087" offset=".67"/>
		<stop stop-color="#CD6C8F" offset=".89"/>
		<stop stop-color="#BE2F92" offset="1"/>
	</linearGradient>
	<path d="m1819.9 1209.5c-20.192-22.898-38.299-12.661-32.244 14.366 6.083 26.981 7.292-7.42 13.882-10.899 6.581-3.515 28.085 7.571 18.362-3.467z" fill="url(#n)"/>
	<linearGradient id="m" x1="1672.2" x2="1708.9" y1="1281.4" y2="1281.4" gradientUnits="userSpaceOnUse">
		<stop stop-color="#3BA2FF" offset="0"/>
		<stop stop-color="#2BC0F5" offset=".0494"/>
		<stop stop-color="#1EDBED" offset=".1046"/>
		<stop stop-color="#14EEE7" offset=".1611"/>
		<stop stop-color="#0EF9E3" offset=".2191"/>
		<stop stop-color="#0CFDE2" offset=".2809"/>
		<stop stop-color="#4EF33F" offset=".6685"/>
		<stop stop-color="#97ED3C" offset=".8876"/>
		<stop stop-color="#E8E93A" offset="1"/>
	</linearGradient>
	<path d="m1707.7 1283.6c-12.049-28.098-32.462-24.001-35.101 3.576-2.643 27.593 9.205-4.792 16.569-6.017 7.371-1.256 24.336 15.934 18.532 2.441z" fill="url(#m)"/>
	<linearGradient id="k" x1="1565.7" x2="1603.5" y1="1307.5" y2="1307.5" gradientUnits="userSpaceOnUse">
		<stop stop-color="#F68B1F" offset="0"/>
		<stop stop-color="#0080C8" offset=".4888"/>
		<stop stop-color="#F26122" offset=".9944"/>
	</linearGradient>
	<path d="m1603.3 1317.4c-2.69-30.481-23.346-32.893-34.477-7.544-11.098 25.357 10.258-1.701 17.652-0.578 7.385 1.088 18.165 22.724 16.825 8.122z" fill="url(#k)"/>
	<linearGradient id="j" x1="1456.3" x2="1494.3" y1="1323.9" y2="1323.9" gradientUnits="userSpaceOnUse">
		<stop stop-color="#00AB4E" offset=".05"/>
		<stop stop-color="#BD268F" offset=".5"/>
		<stop stop-color="#F26922" offset="1"/>
	</linearGradient>
	<path d="m1479.3 1323.3c6.675 3.357 10.151 27.264 13.476 12.973 6.927-29.759-11.937-38.539-30.41-17.883-18.466 20.625 10.285 1.593 16.934 4.91z" fill="url(#j)"/>
	<linearGradient id="i" x1="1363.7" x2="1401.7" y1="1294.6" y2="1294.6" gradientUnits="userSpaceOnUse">
		<stop stop-color="#B5C634" offset="0"/>
		<stop stop-color="#A92E91" offset="1"/>
	</linearGradient>
	<path d="m1369.8 1289c-18.466 20.624 10.263 1.536 16.938 4.893s10.148 27.28 13.44 12.982c6.93-29.775-11.901-38.548-30.378-17.875z" fill="url(#i)"/>
	<linearGradient id="h" x1="2449.9" x2="2481" y1="760.28" y2="760.28" gradientUnits="userSpaceOnUse">
		<stop stop-color="#F37121" offset="0"/>
		<stop stop-color="#0080C8" offset="1"/>
	</linearGradient>
	<path d="m2457.9 753.25c-9.023 8.086-10.28 23.765-4.18 16.287 6.096-7.462 8.077-12.513 25.737-16.309 7.228-2.321-12.494-8.09-21.557 0.022z" fill="url(#h)"/>
	<linearGradient id="g" x1="2377.1" x2="2408.2" y1="808.28" y2="808.28" gradientUnits="userSpaceOnUse">
		<stop stop-color="#FFF200" offset="0"/>
		<stop stop-color="#F5AE28" offset=".5"/>
		<stop stop-color="#6FBE45" offset="1"/>
	</linearGradient>
	<path d="m2385.1 801.24c-9.027 8.103-10.284 23.781-4.2 16.3 6.116-7.474 8.094-12.51 25.766-16.285 7.204-2.362-12.535-8.134-21.566-0.015z" fill="url(#g)"/>
	<linearGradient id="f" x1="2296" x2="2328.1" y1="853.92" y2="853.92" gradientUnits="userSpaceOnUse">
		<stop stop-color="#A6CE39" offset=".05"/>
		<stop stop-color="#552F7F" offset=".5337"/>
		<stop stop-color="#DA2128" offset="1"/>
	</linearGradient>
	<path d="m2305 846.72c-9.545 7.489-11.801 23.015-5.252 15.998 6.593-7.059 8.9-11.952 26.766-14.583 7.347-1.848-11.949-8.917-21.514-1.415z" fill="url(#f)"/>
	<linearGradient id="e" x1="2217.4" x2="2249.5" y1="893.15" y2="893.15" gradientUnits="userSpaceOnUse">
		<stop stop-color="#7C00AB" offset=".05"/>
		<stop stop-color="#BD9C26" offset=".5"/>
		<stop stop-color="#63F222" offset="1"/>
	</linearGradient>
	<path d="m2226.4 885.95c-9.562 7.485-11.824 23.044-5.285 15.99 6.609-7.055 8.916-11.949 26.766-14.583 7.351-1.863-11.945-8.932-21.481-1.407z" fill="url(#e)"/>
	<linearGradient id="d" x1="2129.7" x2="2159.8" y1="954.3" y2="954.3" gradientUnits="userSpaceOnUse">
		<stop stop-color="#B0D240" offset="0"/>
		<stop stop-color="#FFDF00" offset=".5169"/>
		<stop stop-color="#00AA4F" offset=".95"/>
	</linearGradient>
	<path d="m2136.8 947.46c-8.591 8.543-8.962 24.264-3.298 16.5 5.668-7.78 7.414-12.936 24.84-17.695 7.051-2.689-12.931-7.362-21.542 1.195z" fill="url(#d)"/>
	<linearGradient id="c" x1="2037.7" x2="2067.8" y1="1016.4" y2="1016.4" gradientUnits="userSpaceOnUse">
		<stop stop-color="#FFF166" offset="0"/>
		<stop stop-color="#F0E660" offset=".0782"/>
		<stop stop-color="#E5DD5B" offset=".1758"/>
		<stop stop-color="#E1DA59" offset=".28"/>
		<stop stop-color="#24B34B" offset=".67"/>
		<stop stop-color="#21777E" offset=".89"/>
		<stop stop-color="#2E3192" offset="1"/>
	</linearGradient>
	<path d="m2044.8 1009.5c-8.566 8.584-8.989 24.309-3.298 16.5 5.691-7.81 7.414-12.936 24.833-17.662 7.055-2.704-12.936-7.414-21.535 1.162z" fill="url(#c)"/>
	<linearGradient id="b" x1="1894.4" x2="1917.9" y1="1156.3" y2="1156.3" gradientUnits="userSpaceOnUse">
		<stop stop-color="#3BA2FF" offset="0"/>
		<stop stop-color="#46B0E9" offset=".0266"/>
		<stop stop-color="#58C5C7" offset=".0748"/>
		<stop stop-color="#66D5AC" offset=".124"/>
		<stop stop-color="#6FE199" offset=".174"/>
		<stop stop-color="#75E88E" offset=".2253"/>
		<stop stop-color="#77EA8A" offset=".28"/>
		<stop stop-color="#CBDA87" offset=".67"/>
		<stop stop-color="#CDC16C" offset=".89"/>
		<stop stop-color="#BE9F2F" offset="1"/>
	</linearGradient>
	<path d="m1896.9 1151.8c-5.34 10.883-0.629 25.888 2.24 16.678 2.833-9.201 2.778-14.619 17.745-24.743 5.814-4.873-14.641-2.834-19.985 8.065z" fill="url(#b)"/>
	<linearGradient id="dh" x1="1976" x2="1982.2" y1="1062" y2="1062" gradientUnits="userSpaceOnUse">
		<stop stop-color="#9300AB" offset="0"/>
		<stop stop-color="#94EC2F" offset="1"/>
	</linearGradient>
	<path d="m1979.3 1073.3c3.693-0.816 3.937-13.948 0.753-21.712-6.014-6.412-4.405 22.503-0.753 21.712z" fill="url(#dh)"/>
	<linearGradient id="dg" x1="1821.5" x2="1846.6" y1="1270.8" y2="1270.8" gradientUnits="userSpaceOnUse">
		<stop stop-color="#F9D837" offset="0"/>
		<stop stop-color="#552F7F" offset=".5337"/>
		<stop stop-color="#F26522" offset="1"/>
	</linearGradient>
	<path d="m1824.9 1265.5c-6.204 10.433-2.786 25.754 0.849 16.817 3.618-8.941 3.995-14.366 19.75-23.231 6.183-4.36-14.362-4.011-20.599 6.414z" fill="url(#dg)"/>
	<linearGradient id="df" x1="1683.5" x2="1715.3" y1="1349.7" y2="1349.7" gradientUnits="userSpaceOnUse">
		<stop stop-color="#FFF33B" offset="0"/>
		<stop stop-color="#EBE054" offset=".0645"/>
		<stop stop-color="#DDD267" offset=".1334"/>
		<stop stop-color="#D4CA72" offset=".2044"/>
		<stop stop-color="#D1C776" offset=".28"/>
		<stop stop-color="#9FA391" offset=".67"/>
		<stop stop-color="#6A7FA4" offset=".89"/>
		<stop stop-color="#3367B1" offset="1"/>
	</linearGradient>
	<path d="m1692.2 1342.5c-9.381 7.68-11.332 23.308-4.895 16.094 6.397-7.188 8.621-12.169 26.403-15.197 7.311-1.993-12.116-8.626-21.508-0.897z" fill="url(#df)"/>
	<linearGradient id="de" x1="1566.3" x2="1601.6" y1="1393.7" y2="1393.7" gradientUnits="userSpaceOnUse">
		<stop stop-color="#66C7FF" offset="0"/>
		<stop stop-color="#63BEF9" offset=".0296"/>
		<stop stop-color="#5EABEC" offset=".1097"/>
		<stop stop-color="#5AA0E4" offset=".1921"/>
		<stop stop-color="#599CE1" offset=".28"/>
		<stop stop-color="#7524B3" offset=".67"/>
		<stop stop-color="#7E2161" offset=".89"/>
		<stop stop-color="#923B2E" offset="1"/>
	</linearGradient>
	<path d="m1579.2 1386.6c-11.101 4.802-17.346 19.22-9.218 14.085 8.17-5.091 11.724-9.243 29.66-7.141 7.547 0.124-9.237-11.672-20.442-6.944z" fill="url(#de)"/>
	<linearGradient id="dd" x1="1462.3" x2="1497.7" y1="1394.1" y2="1394.1" gradientUnits="userSpaceOnUse">
		<stop stop-color="#552F7F" offset="0"/>
		<stop stop-color="#FFDB00" offset="1"/>
	</linearGradient>
	<path d="m1480.2 1386.3c-12.117-0.553-24.001 9.722-14.422 8.679 9.549-1.067 14.53-3.267 29.759 6.463 6.793 3.365-3.22-14.589-15.337-15.142z" fill="url(#dd)"/>
	<linearGradient id="dc" x1="1365.7" x2="1376.4" y1="1334.8" y2="1334.8" gradientUnits="userSpaceOnUse">
		<stop stop-color="#00AB4E" offset=".05"/>
		<stop stop-color="#BD268F" offset=".5"/>
		<stop stop-color="#F26922" offset="1"/>
	</linearGradient>
	<path d="m1374.3 1332c-6.407-4.795-11.085-1.478-7.293 5.406 3.647 6.145 13.725-0.64 7.293-5.406z" fill="url(#dc)"/>
	<linearGradient id="db" x1="2548.7" x2="2565.3" y1="715.16" y2="715.16" gradientUnits="userSpaceOnUse">
		<stop stop-color="#AD00A1" offset=".0056"/>
		<stop stop-color="#DAD521" offset=".5"/>
		<stop stop-color="#63F222" offset="1"/>
	</linearGradient>
	<path d="m2552.4 712.88c-9.376 6.648 1.362 13.574 9.751 2.524 7.902-6.286-0.406-9.11-9.751-2.524z" fill="url(#db)"/>
	<linearGradient id="da" x1="1279" x2="1289.5" y1="356.48" y2="356.48" gradientUnits="userSpaceOnUse">
		<stop stop-color="#1FF626" offset="0"/>
		<stop stop-color="#C80054" offset=".4888"/>
		<stop stop-color="#75F222" offset=".9944"/>
	</linearGradient>
	<path d="m1287 345.76c-8.991 2.43-10.297 14.603-4.2 21.034 4.059 4.36 10.15-22.641 4.2-21.034z" fill="url(#da)"/>
	<linearGradient id="cz" x1="1319.3" x2="1324.7" y1="373.42" y2="373.42" gradientUnits="userSpaceOnUse">
		<stop stop-color="#FFF200" offset=".05"/>
		<stop stop-color="#0E58A8" offset=".5337"/>
		<stop stop-color="#A93E89" offset="1"/>
	</linearGradient>
	<path d="m1322.9 384.04c1.289-1.441 1.804-5.489 1.761-9.703-0.068-6.707-1.549-13.834-3.589-11.548-1.673 2.394-2.097 8.119-1.728 13.09 0.412 5.52 1.802 10.109 3.556 8.161z" fill="url(#cz)"/>
	<linearGradient id="cy" x1="1332.9" x2="1338.4" y1="373.61" y2="373.61" gradientUnits="userSpaceOnUse">
		<stop stop-color="#A02632" offset="0"/>
		<stop stop-color="#1FF246" offset="1"/>
	</linearGradient>
	<path d="m1333 372.69c-0.366 4.792-0.053 9.825 1.359 11.508 1.906 2.267 3.623-3.835 3.986-10.245 0.247-4.356-0.132-8.855-1.503-10.963-1.805-2.127-3.376 3.59-3.842 9.7z" fill="url(#cy)"/>
	<linearGradient id="cw" x1="1314.3" x2="1319.5" y1="294.51" y2="294.51" gradientUnits="userSpaceOnUse">
		<stop stop-color="#7C00AB" offset=".05"/>
		<stop stop-color="#BD9C26" offset=".5"/>
		<stop stop-color="#63F222" offset="1"/>
	</linearGradient>
	<path d="m1315.5 298.53c2.696 0.495 5.57-6.718 2.99-7.892-3.213-1.505-5.708 7.341-2.99 7.892z" fill="url(#cw)"/>
	<linearGradient id="cv" x1="1228.5" x2="1266.6" y1="532.38" y2="532.38" gradientUnits="userSpaceOnUse">
		<stop stop-color="#C80054" offset="0"/>
		<stop stop-color="#947235" offset=".4944"/>
		<stop stop-color="#1FF246" offset="1"/>
	</linearGradient>
	<path d="m1252.4 519.24c-1.185-32.453 5.868-67.9-3.843-65.251-25.696 7.039-28.887 129.31 3.292 152.64 32.199 23.324 1.749-54.92 0.551-87.394z" fill="url(#cv)"/>
	<linearGradient id="cu" x1="1224.1" x2="1281.8" y1="890.52" y2="890.52" gradientUnits="userSpaceOnUse">
		<stop stop-color="#3BA2FF" offset="0"/>
		<stop stop-color="#46B0E9" offset=".0266"/>
		<stop stop-color="#58C5C7" offset=".0748"/>
		<stop stop-color="#66D5AC" offset=".124"/>
		<stop stop-color="#6FE199" offset=".174"/>
		<stop stop-color="#75E88E" offset=".2253"/>
		<stop stop-color="#77EA8A" offset=".28"/>
		<stop stop-color="#CBDA87" offset=".67"/>
		<stop stop-color="#CDC16C" offset=".89"/>
		<stop stop-color="#BE9F2F" offset="1"/>
	</linearGradient>
	<path d="m1246.9 751.55c-11.652 42.645-26.814 93.213-21.844 135.31 8.028 67.573 47.605 184.52 56.733 207.79-25.128-104.8-31.626-156.76-35.176-208.12-1.616-23.34 3.032-57.447 7.566-91.956 5.451-41.487 10.736-83.555 4.774-108.19 0.787 16.373-4.988 39.318-12.053 65.174z" fill="url(#cu)"/>
</svg>